<svg width="143" height="51" viewBox="0 0 143 51" fill="none" xmlns="http://www.w3.org/2000/svg">
<path d="M20.7726 31.6486L14.3208 31.4202C13.6331 31.3876 13.0436 31.1919 13.0436 30.6048C13.0436 29.7567 14.0916 29.6588 18.6766 28.9738C23.0652 28.3214 25.4232 26.5274 25.4232 23.3308C25.4232 20.0689 22.5739 18.2748 17.9889 17.8182L19.5281 14.4911C19.7901 14.5889 20.0849 14.6215 20.3796 14.6215C22.0499 14.6215 23.4254 13.2515 23.4254 11.588C23.4254 9.92441 22.0499 8.55442 20.3796 8.55442C18.7094 8.55442 17.3339 9.92441 17.3339 11.588C17.3339 12.6644 17.8906 13.5777 18.7094 14.1322L17.0064 17.7856C12.5851 17.916 9.08076 19.8732 9.08076 23.82C9.08076 26.9841 12.2248 28.5498 15.4998 28.8433V28.9086C11.4388 29.1369 9.08076 30.5721 9.08076 33.41C9.08076 34.6495 9.60477 35.6281 11.0785 36.1173V36.1826C9.57202 36.2804 8 37.1938 8 39.1835C8 41.0754 10.5218 42.9999 16.4496 42.9999C23.0324 42.9999 26.5695 40.7818 26.5695 36.9981C26.6022 33.6383 24.9319 31.8443 20.7726 31.6486ZM15.3033 23.4612C15.3033 19.1229 16.0566 18.4379 17.2356 18.4379C18.4146 18.4379 19.1679 19.1229 19.1679 23.4612C19.1679 27.7995 18.4146 28.4845 17.2356 28.4845C16.0893 28.4845 15.3033 27.7995 15.3033 23.4612ZM16.6133 42.1192C12.9453 42.1192 10.4235 41.0754 10.4235 38.89C10.4235 37.3569 11.144 36.7371 11.93 36.7371C19.7246 37.5526 23.3927 36.0521 23.3927 39.1835C23.3927 40.9123 21.4277 42.1192 16.6133 42.1192Z" fill="#B41F24"/>
<path d="M46.3833 32.4641V23.2004C46.3833 20.0363 45.4008 17.7856 41.7328 17.7856C39.735 17.7856 38.2612 18.3402 35.7067 20.2973V17.7856C29.3859 19.384 27.0606 18.7316 27.0606 19.3187C27.0606 20.0037 29.4841 19.5797 29.4841 22.0587V32.4967C29.4841 34.2908 27.3553 33.5732 27.3553 34.356C27.3553 34.5517 27.4208 34.7148 27.7483 34.7148C29.1239 34.7148 30.6959 34.6496 32.5627 34.6496C34.4294 34.6496 36.0014 34.7148 37.115 34.7148C37.4425 34.7148 37.508 34.5191 37.508 34.356C37.508 33.6058 35.6739 34.2908 35.6739 32.4967V21.4716C36.4272 20.754 37.4752 20.0363 38.425 20.0363C39.3092 20.0363 40.128 20.6235 40.128 22.2218V32.4641C40.128 34.2582 38.294 33.5406 38.294 34.3234C38.294 34.5191 38.3595 34.6822 38.687 34.6822C39.8005 34.6822 41.3725 34.617 43.2393 34.617C45.106 34.617 46.6781 34.6822 48.0536 34.6822C48.3811 34.6822 48.4466 34.4865 48.4466 34.3234C48.4793 33.5732 46.3833 34.2582 46.3833 32.4641Z" fill="#B41F24"/>
<path d="M58.6649 17.7856C53.1628 17.7856 49.0035 21.7978 49.0035 26.3644C49.0035 30.931 53.1628 34.9432 58.6649 34.9432C64.1669 34.9432 68.3262 30.931 68.3262 26.3644C68.3262 21.7978 64.1669 17.7856 58.6649 17.7856ZM58.6649 34.0298C57.0929 34.0298 56.0448 33.0839 56.0448 26.3318C56.0448 19.5797 57.0929 18.6337 58.6649 18.6337C60.2369 18.6337 61.2849 19.5797 61.2849 26.3318C61.3177 33.0839 60.2369 34.0298 58.6649 34.0298Z" fill="#B41F24"/>
<path d="M96.1314 18.0141C95.2144 18.0141 94.2646 18.0793 93.3476 18.0793C92.3978 18.0793 91.4808 18.0141 90.5311 18.0141C90.2035 18.0141 89.9743 18.1119 89.9743 18.4055C89.9743 19.0253 91.9066 18.6338 91.9066 20.9498C91.9066 21.8305 91.6773 22.7764 91.2188 23.8202L89.4503 27.604L86.7648 21.1781C86.5683 20.7541 86.3718 20.3626 86.3718 19.7429C86.3718 18.6338 87.6818 18.8622 87.6818 18.3077C87.6818 18.0467 87.387 17.9489 86.994 17.9489C85.6185 17.9489 84.243 18.0141 82.8675 18.0141C81.492 18.0141 80.1164 17.9489 78.7409 17.9489C78.3479 17.9489 78.1187 17.9815 78.1187 18.2424C78.1187 18.7969 79.1012 18.3729 79.7562 19.9712L81.0989 23.1353L78.9374 27.4083L76.1209 20.9498C75.9244 20.5257 75.7279 20.0691 75.7279 19.7103C75.7279 18.6991 77.0379 18.8622 77.0379 18.275C77.0379 18.0141 76.8414 17.9489 76.4811 17.9489C74.9419 17.9489 73.4681 18.0141 72.0598 18.0141C70.5861 18.0141 69.1451 17.9489 67.6713 17.9489C67.2455 17.9489 67.0163 18.0141 67.0163 18.2424C67.0163 18.9274 68.2608 18.2424 69.2106 20.3626L75.5314 34.2909C75.6624 34.5845 75.8261 34.878 76.1864 34.878C76.5466 34.878 76.6449 34.5845 76.8086 34.2909L81.5247 24.1464L85.8805 34.2909C86.0115 34.5845 86.1753 34.878 86.5355 34.878C86.8958 34.878 87.0268 34.5845 87.1578 34.2909L93.1838 21.6348C94.7559 18.3403 96.7209 19.0579 96.7209 18.3403C96.7864 18.1772 96.5244 18.0141 96.1314 18.0141Z" fill="#B41F24"/>
<path d="M108.675 17.7857C106.055 17.7857 104.876 18.7316 104.221 19.3187V8C97.9325 10.3812 95.7383 9.43523 95.7383 10.2507C95.7383 10.9357 97.998 10.479 97.998 12.3057V34.5517C97.998 34.8127 98.0308 34.9106 98.0963 34.9106C98.3255 34.9106 98.4238 34.7801 98.9805 34.356L100.454 33.2144C102.092 34.0951 103.893 34.8779 106.448 34.8779C112.637 34.8779 116.174 30.2134 116.174 25.6794C116.174 20.3952 113.161 17.7857 108.675 17.7857ZM106.382 34.2582C105.138 34.2582 104.221 33.5732 104.221 32.3663V20.3625C104.221 20.069 104.581 19.808 105.17 19.808C107.725 19.808 109.526 22.6132 109.526 27.7996C109.526 31.3877 108.871 34.2582 106.382 34.2582Z" fill="#B41F24"/>
<path d="M134.253 28.028C133.958 28.028 133.827 28.4194 133.237 29.1696C132.353 30.2787 131.24 30.9963 129.209 30.9963C126.458 30.9963 124.526 28.8761 124.198 25.1575H134.384C134.318 20.1994 130.748 17.7856 126.851 17.7856C121.677 17.7856 117.91 21.5694 117.91 26.4296C117.91 31.3551 121.382 34.9105 126.556 34.9105C133.467 34.9105 134.613 29.137 134.613 28.452C134.58 28.1584 134.449 28.028 134.253 28.028ZM126.425 18.6664C128.325 18.6664 128.718 20.7866 128.718 24.2768H124.1C124.1 20.754 124.526 18.6664 126.425 18.6664Z" fill="#B41F24"/>
</svg>
