<svg width="65" height="56" viewBox="0 0 65 56" fill="none" xmlns="http://www.w3.org/2000/svg">
<path d="M49.4109 39.4056C48.106 40.052 46.843 40.7795 45.6291 41.5839C45.198 41.894 44.8047 42.2343 44.3887 42.552C42.895 43.6291 41.5739 44.9273 40.4707 46.4019C40.0229 47.0678 39.6596 47.7868 39.3891 48.5424C39.1849 49.0189 39.1093 49.5256 38.9051 50.0021C38.8219 50.2517 38.7311 50.4938 38.6403 50.7585C38.5496 51.0232 38.4815 51.2653 38.3832 51.5149C38.2849 51.7645 38.0428 51.772 37.7932 51.4543C37.4437 50.9847 37.2577 50.4135 37.2638 49.8282C37.2821 49.2202 37.4102 48.6206 37.6419 48.0583L37.9747 47.2187L38.3832 46.4094C38.963 45.3667 39.6946 44.4159 40.5539 43.5882C41.5599 42.605 42.528 41.5461 43.6323 40.6611C44.8424 39.7156 46.105 38.8394 47.4141 38.0366C48.1705 37.5374 49.0176 37.076 49.8269 36.607C51.037 35.8507 52.3077 35.2834 53.4801 34.5497C54.3488 33.9701 55.1799 33.336 55.9685 32.6513L56.4374 32.2126C57.035 31.7058 57.1938 31.6756 57.814 31.9101C57.9502 31.963 58.0939 32.0008 58.2224 32.0613C58.4386 32.1492 58.5815 32.3575 58.5855 32.5908C58.5895 32.9164 58.4829 33.2338 58.283 33.4908C57.6407 34.3533 56.8763 35.1177 56.0139 35.7599C55.1752 36.3465 54.3068 36.8893 53.412 37.3861C52.1186 38.1424 50.7723 38.7778 49.479 39.4888L49.4109 39.4056Z" fill="#ED8054"/>
<path d="M56.1425 13.2885C56.0063 13.0994 55.8777 12.9103 55.734 12.7288L55.2727 12.222L54.3121 11.2312L53.2456 10.3084L52.7162 9.83947L52.1413 9.42347L50.9765 8.59148C50.5757 8.33432 50.1521 8.10741 49.7361 7.83512C48.903 7.34355 48.039 6.90647 47.1494 6.52662C43.4929 5.02041 39.6089 4.14082 35.6603 3.92475C32.7646 3.79826 29.864 4.00382 27.0151 4.5374C21.9488 5.42537 17.1144 7.32925 12.8031 10.1344C10.694 11.5169 8.82396 13.2336 7.26661 15.2172C5.74796 17.1666 4.71133 19.4471 4.24118 21.8731C3.84839 23.9772 4.08518 26.1505 4.9219 28.1206C5.76935 30.1792 7.00734 32.0541 8.56754 33.6421C11.6308 36.7834 15.4209 39.1214 19.6028 40.4493C20.2987 40.6535 21.0021 40.8728 21.713 41.0695C22.4307 41.2609 23.1578 41.4149 23.8914 41.5309C25.7217 41.788 25.5327 41.9923 23.8914 42.4234C22.7339 42.6943 21.5541 42.8589 20.3667 42.915C18.6536 42.9273 16.9515 42.6407 15.3369 42.0679C13.7426 41.5133 12.2031 40.8119 10.7383 39.9728C9.98193 39.5568 9.28608 39.0954 8.59023 38.6113C7.90013 38.0928 7.23861 37.5374 6.60858 36.9473C3.93449 34.5998 1.90386 31.6085 0.708984 28.2568C0.104227 26.4569 -0.11734 24.5504 0.0585164 22.6597C0.166478 21.7426 0.343463 20.8349 0.587967 19.9444L0.746802 19.2939L0.981273 18.6586L1.45778 17.403C2.87506 14.1948 5.05325 11.3806 7.80362 9.20413C10.9539 6.66909 14.4608 4.61237 18.2111 3.10032C20.0808 2.34261 21.9955 1.701 23.9443 1.17917L25.457 0.823682L26.9697 0.551393C27.9606 0.347176 28.9741 0.271541 29.9952 0.150523C34.4028 -0.223536 38.8418 0.100646 43.1482 1.1111C45.3032 1.62984 47.405 2.34899 49.426 3.25915C51.4733 4.15749 53.414 5.28133 55.2121 6.60982C57.4223 8.29242 59.3303 10.3385 60.8546 12.6607C62.423 15.0038 63.4559 17.6637 63.88 20.4512C64.2326 22.593 64.1373 24.7847 63.6002 26.8878C63.0098 29.0047 61.9759 30.9719 60.5672 32.6588C57.8291 35.9792 54.2591 38.097 50.9992 40.1694C48.6147 41.594 46.4278 43.3258 44.4946 45.3202C43.6177 46.2614 42.8884 47.3299 42.3314 48.4894C42.2179 48.7768 42.0666 49.0491 41.9759 49.3441L41.8851 49.6315C41.8397 49.76 41.7944 49.8811 41.7565 50.0248C41.6623 50.3163 41.6063 50.6189 41.5901 50.9248L41.5221 51.9157V52.4224V53.0275C41.5221 53.8595 41.5221 54.6764 41.628 55.5311L41.0077 55.6521C40.9556 55.6508 40.9056 55.673 40.8716 55.7126L40.7884 55.7882L40.622 55.9319L40.5388 56C40.5388 56 40.4859 56 40.4253 56L40.2741 55.9546C40.0623 55.8941 39.911 55.8185 39.7295 55.758C39.0254 55.4965 38.353 55.1565 37.7251 54.7444C37.3876 54.4987 37.0667 54.2309 36.7646 53.9427C36.4469 53.6629 36.1519 53.3301 35.8645 53.0502C35.3048 52.4376 34.7905 51.8552 34.3518 51.2955L34.0492 50.9097L33.8677 50.6677L33.5425 50.1987C33.3383 49.9038 33.1719 49.6239 33.0282 49.3667C32.7845 48.9393 32.606 48.4779 32.4987 47.9977C32.4267 47.6052 32.4267 47.2028 32.4987 46.8103C32.5275 46.468 32.5857 46.129 32.6727 45.7967C32.8466 45.3354 33.429 45.4186 34.2383 45.9177C34.7333 46.2236 35.1925 46.5839 35.6073 46.9918C35.8645 47.2262 36.1217 47.491 36.3637 47.7481L36.7797 48.1944L36.999 48.4289L37.0747 48.4969V48.4969C37.3149 48.7175 37.5847 48.9033 37.8764 49.0491C37.9672 49.0491 38.0655 49.1247 38.1411 49.0491C38.2168 48.9734 38.0806 48.7011 38.0655 48.5499C38.0504 48.3986 38.0655 48.3532 38.0655 48.2776V48.1641C38.0655 48.0961 38.0655 48.1641 38.0655 47.9826C38.478 46.7544 39.0529 45.5868 39.7749 44.5109C41.1335 42.534 42.7893 40.7788 44.6836 39.3072C46.4913 37.8398 48.3595 36.6221 50.1219 35.4271C51.8842 34.232 53.5784 33.1202 55.0079 31.8949C56.355 30.8161 57.4822 29.4886 58.3283 27.9845C58.7191 27.2647 59.0285 26.5036 59.2511 25.7154C59.4677 24.916 59.5846 24.0929 59.599 23.2648C59.635 21.5024 59.3453 19.7485 58.7443 18.0913C58.4459 17.2395 58.0554 16.4228 57.5795 15.6559C57.3375 15.2626 57.1257 14.8541 56.8761 14.4684L56.0366 13.3641L56.1425 13.2885Z" fill="#ED8054"/>
<path d="M36.8932 23.5901C36.996 24.2037 36.9198 24.834 36.6738 25.4054C36.5802 25.6554 36.4584 25.894 36.3108 26.1164C36.2276 26.2298 36.1746 26.3357 36.0763 26.4492C35.978 26.5626 35.8569 26.6912 35.7435 26.7971C35.5738 26.9733 35.3833 27.1282 35.1762 27.2585C34.97 27.4126 34.7279 27.5115 34.4728 27.5459C33.7581 27.6692 33.0239 27.4972 32.4382 27.0694C32.0061 26.7611 31.6365 26.3735 31.3491 25.9273C31.0711 25.5574 30.847 25.1499 30.6835 24.7171C30.6317 24.5608 30.5887 24.4017 30.5549 24.2406C30.5549 24.0666 30.5549 23.8851 30.5549 23.7036C30.5777 23.5373 30.6131 23.3729 30.6608 23.212C30.747 23.0586 30.8723 22.9307 31.0238 22.8413C31.2129 22.7052 31.6365 23.0758 32.0903 23.4313C32.3802 23.6817 32.717 23.872 33.0811 23.991C33.1568 23.8927 33.2702 23.8473 33.2929 23.991C33.3156 24.1347 33.4063 24.3465 33.482 24.581C33.5051 24.6784 33.5812 24.7545 33.6786 24.7776V24.7776C33.6714 24.8379 33.6714 24.8989 33.6786 24.9591C33.6722 24.9839 33.6722 25.01 33.6786 25.0348C33.6754 25.0497 33.6754 25.0652 33.6786 25.0802V25.0802L33.6408 25.0348C33.6408 25.0348 33.5652 24.8457 33.5727 24.8457C33.5803 24.8457 33.5727 24.8457 33.5727 24.8457C33.5691 24.8257 33.5691 24.8052 33.5727 24.7852L33.6333 24.7247L33.6711 24.6339C33.6711 24.5734 33.7467 24.5053 33.7391 24.4826C33.7316 24.4599 33.8148 24.3919 33.7921 24.3011C33.6325 24.0936 33.3661 23.9989 33.1114 24.0591C33.0618 24.0856 33.016 24.1187 32.9752 24.1574C32.9541 24.1961 32.9364 24.2366 32.9223 24.2784V24.2784C32.9123 24.2496 32.8997 24.2217 32.8845 24.1952C32.843 24.1255 32.7921 24.0619 32.7332 24.0061C32.7148 23.9644 32.6862 23.928 32.65 23.9002C32.65 23.9002 32.529 23.8322 32.5592 23.8397C32.5895 23.8473 32.5592 23.8397 32.5592 23.8397H32.6197C32.6838 23.8595 32.7523 23.8595 32.8164 23.8397C32.92 23.8272 33.0216 23.8018 33.1189 23.7641H33.066L32.892 23.8473C32.7634 23.9154 32.6122 23.9986 32.4306 24.112C32.2491 24.2255 32.0978 24.3238 31.939 24.4297C31.4096 24.8079 30.812 24.9213 30.3734 24.4297C30.2261 24.1513 30.1288 23.8492 30.0859 23.5372C30.0879 23.1585 30.1623 22.7836 30.3053 22.4329C30.4599 22.1261 30.6615 21.8454 30.9028 21.6009C31.1008 21.4028 31.3247 21.2323 31.5684 21.0942C32.3377 20.6643 33.2456 20.5556 34.0946 20.7916C34.7237 20.9256 35.3105 21.2112 35.804 21.6236C36.3976 22.1253 36.8096 22.8084 36.9764 23.5674L36.8932 23.5901Z" fill="#ED8054"/>
<path d="M23.5056 25.2464C23.7276 25.9936 23.6875 26.7942 23.3922 27.5155C23.0985 28.1962 22.635 28.79 22.0458 29.24C21.6706 29.5813 21.2272 29.8391 20.7449 29.9964C20.537 30.0464 20.3231 30.0667 20.1096 30.0569C19.8857 30.0602 19.663 30.0244 19.4515 29.951C18.9833 29.8266 18.5639 29.5628 18.2489 29.1946C17.7652 28.6491 17.4384 27.9825 17.3035 27.2659C17.1957 26.7079 17.1703 26.1371 17.2278 25.5717C17.2394 24.7954 17.659 24.0827 18.3321 23.6959C18.5515 23.59 18.7708 23.9304 19.0053 24.3388C19.1263 24.5355 19.2549 24.7473 19.3759 24.9137C19.4732 25.0358 19.5617 25.1647 19.6406 25.2994C19.7319 25.5661 19.8565 25.8202 20.0112 26.0558C20.0112 26.1163 20.0869 26.1692 20.0793 26.2373C20.0753 26.3028 20.0753 26.3684 20.0793 26.4339C20.0755 26.4994 20.0755 26.5651 20.0793 26.6306V26.8197C20.0701 26.8671 20.0701 26.9159 20.0793 26.9634V26.9634C20.0568 26.9893 20.0412 27.0206 20.0339 27.0541C20.018 27.0908 20.0053 27.1287 19.9961 27.1676V27.1676C20.1096 26.797 19.9961 27.0693 20.0491 26.9861V26.9861C20.0491 26.9861 20.1096 26.9861 20.1701 26.9861L20.3289 26.9331C20.6196 26.836 20.836 26.5907 20.8962 26.2902C20.9077 26.056 20.8099 25.8297 20.6315 25.6776C20.3464 25.3869 19.9343 25.259 19.5347 25.3372C19.3915 25.3836 19.2864 25.5063 19.2625 25.6549V25.7305V25.7305H19.2095V25.7305L19.3154 25.7759C19.3835 25.7759 19.391 25.7759 19.4137 25.8515C19.4364 25.9272 19.4894 25.9272 19.4894 25.965C19.5039 26.0118 19.5039 26.0619 19.4894 26.1087C19.4339 26.1694 19.3732 26.2251 19.3078 26.2751C19.0845 26.4275 18.8463 26.5567 18.5969 26.6608L18.1506 26.8726C17.6706 27.1099 17.0943 27.0288 16.6984 26.6684C16.4213 26.2906 16.2562 25.8423 16.2219 25.375C16.1967 25.0667 16.2406 24.7566 16.3505 24.4674C16.4452 24.1824 16.5802 23.9125 16.7513 23.6657C17.3948 22.8235 18.4076 22.3468 19.4667 22.3874C20.3477 22.4049 21.2066 22.6668 21.9475 23.1438C22.6837 23.6202 23.2441 24.324 23.5434 25.1481L23.5056 25.2464Z" fill="#ED8054"/>
<path d="M18.4607 27.266C18.5184 27.0769 18.5663 26.8851 18.6044 26.6911C18.6044 26.6231 18.5515 26.5928 18.6044 26.5247C18.686 26.2765 18.7542 26.024 18.8086 25.7684C18.8114 25.6746 18.7657 25.586 18.6876 25.5339C18.5893 25.4583 18.3851 25.4507 18.5893 25.2162C18.7935 24.9818 20.934 23.9304 21.0701 24.0893C21.305 24.3548 21.3238 24.7479 21.1155 25.0347C20.9794 25.2767 21.1685 25.3826 21.1912 25.5566C21.2025 25.7455 21.2025 25.9349 21.1912 26.1239C21.1834 26.2372 21.1834 26.3509 21.1912 26.4642C21.1912 26.6306 21.1912 26.8121 21.2668 26.9407C21.3424 27.0693 21.5618 27.0844 21.7206 27.1449C21.7584 27.1449 21.8189 27.1449 21.8416 27.1449C21.8643 27.1449 21.8416 27.2206 21.6904 27.3113L21.4105 27.4475L20.9567 27.6517L20.5634 27.8257C20.1602 28.0102 19.736 28.1448 19.3003 28.2265C18.7103 28.2265 18.5439 28.0148 18.4229 27.803C18.3725 27.6312 18.3596 27.4507 18.3851 27.2735L18.4607 27.266Z" fill="#ED8054"/>
<path d="M49.063 22.5765C48.9004 23.1327 48.6221 23.6482 48.2461 24.0892C48.0311 24.3437 47.7755 24.5609 47.4897 24.7321C47.3385 24.8229 47.1948 24.9061 47.0435 24.9817C46.8909 25.041 46.7341 25.089 46.5745 25.1254C46.1584 25.264 45.7171 25.3105 45.2812 25.2615C45.067 25.216 44.8571 25.1527 44.6534 25.0725C44.475 24.984 44.3031 24.8829 44.1391 24.7699C43.8748 24.5541 43.6452 24.299 43.4583 24.0136C43.1626 23.5514 42.9549 23.0386 42.8457 22.5008C42.6997 22.0392 42.6584 21.5509 42.7247 21.0713C42.736 20.9076 42.736 20.7434 42.7247 20.5797C42.7677 20.4254 42.8368 20.2796 42.9289 20.1486C43.1482 19.9065 43.3146 19.6418 43.7382 19.6645C43.9299 19.7057 44.1012 19.8128 44.2223 19.967L44.5248 20.2923L44.7895 20.5948C45.0398 20.8892 45.333 21.1442 45.6593 21.3512V21.3512V21.3512V21.3512V21.3512V21.3512C45.5872 21.5201 45.529 21.6946 45.4854 21.8731C45.4324 22.0395 45.4854 22.0697 45.4854 22.1075C45.4255 22.2039 45.3797 22.3083 45.3492 22.4176C45.3492 22.4176 45.3492 22.4555 45.3492 22.4782V22.4782V22.4782C45.3492 22.2891 45.3039 22.9168 45.3492 22.047V22.047V22.047V22.047C45.3511 22.0773 45.3511 22.1076 45.3492 22.1378C45.3434 22.1627 45.3434 22.1885 45.3492 22.2134C45.3946 22.3269 45.3492 22.2134 45.3492 22.2134V22.2134V22.2134V22.2134C45.3492 22.2134 45.4022 22.1605 45.4551 22.1302C45.5637 21.9797 45.6267 21.8012 45.6367 21.6159C45.6367 21.3134 45.6367 20.9427 45.44 20.8595C45.2434 20.7763 45.2509 21.0713 45.2358 21.2453C45.2358 21.2453 45.2358 21.3512 45.2358 21.3209C45.2358 21.2907 45.0996 21.268 44.9786 21.1016C44.8576 20.9352 44.7063 20.7158 44.487 20.3906L44.192 19.9595C43.8508 19.532 43.7669 18.9536 43.9727 18.4468C44.0573 18.2758 44.1726 18.122 44.313 17.9929C44.4784 17.8692 44.6622 17.7723 44.8576 17.7055C44.9559 17.7055 45.0467 17.6299 45.1526 17.6072C45.276 17.5994 45.3998 17.5994 45.5232 17.6072C45.7744 17.5766 46.0284 17.5766 46.2796 17.6072C47.2511 17.8333 48.078 18.4673 48.5486 19.3468C49.1511 20.3083 49.3648 21.4631 49.1462 22.5765H49.063Z" fill="#ED8054"/>
</svg>
