<svg width="72" height="72" viewBox="0 0 72 72" fill="none" xmlns="http://www.w3.org/2000/svg">
<circle cx="36" cy="36" r="36" fill="white"/>
<path d="M26.6667 48C25.9333 48 25.3053 47.7387 24.7827 47.216C24.26 46.6933 23.9991 46.0658 24 45.3333V26.6667C24 25.9333 24.2613 25.3053 24.784 24.7827C25.3067 24.26 25.9342 23.9991 26.6667 24H45.3333C46.0667 24 46.6947 24.2613 47.2173 24.784C47.74 25.3067 48.0009 25.9342 48 26.6667V45.3333C48 46.0667 47.7387 46.6947 47.216 47.2173C46.6933 47.74 46.0658 48.0009 45.3333 48H26.6667ZM26.6667 45.3333H45.3333V26.6667H26.6667V45.3333ZM30.6667 42.6667C31.0444 42.6667 31.3613 42.5387 31.6173 42.2827C31.8733 42.0267 32.0009 41.7102 32 41.3333V37.3333C32 36.9556 31.872 36.6387 31.616 36.3827C31.36 36.1267 31.0436 35.9991 30.6667 36C30.2889 36 29.972 36.128 29.716 36.384C29.46 36.64 29.3324 36.9564 29.3333 37.3333V41.3333C29.3333 41.7111 29.4613 42.028 29.7173 42.284C29.9733 42.54 30.2898 42.6676 30.6667 42.6667ZM41.3333 42.6667C41.7111 42.6667 42.028 42.5387 42.284 42.2827C42.54 42.0267 42.6676 41.7102 42.6667 41.3333V30.6667C42.6667 30.2889 42.5387 29.972 42.2827 29.716C42.0267 29.46 41.7102 29.3324 41.3333 29.3333C40.9556 29.3333 40.6387 29.4613 40.3827 29.7173C40.1267 29.9733 39.9991 30.2898 40 30.6667V41.3333C40 41.7111 40.128 42.028 40.384 42.284C40.64 42.54 40.9564 42.6676 41.3333 42.6667ZM36 42.6667C36.3778 42.6667 36.6947 42.5387 36.9507 42.2827C37.2067 42.0267 37.3342 41.7102 37.3333 41.3333V40C37.3333 39.6222 37.2053 39.3053 36.9493 39.0493C36.6933 38.7933 36.3769 38.6658 36 38.6667C35.6222 38.6667 35.3053 38.7947 35.0493 39.0507C34.7933 39.3067 34.6658 39.6231 34.6667 40V41.3333C34.6667 41.7111 34.7947 42.028 35.0507 42.284C35.3067 42.54 35.6231 42.6676 36 42.6667ZM36 36C36.3778 36 36.6947 35.872 36.9507 35.616C37.2067 35.36 37.3342 35.0436 37.3333 34.6667C37.3333 34.2889 37.2053 33.972 36.9493 33.716C36.6933 33.46 36.3769 33.3324 36 33.3333C35.6222 33.3333 35.3053 33.4613 35.0493 33.7173C34.7933 33.9733 34.6658 34.2898 34.6667 34.6667C34.6667 35.0444 34.7947 35.3613 35.0507 35.6173C35.3067 35.8733 35.6231 36.0009 36 36Z" fill="#5EC3C5"/>
</svg>
