<svg width="60" height="60" viewBox="0 0 60 60" fill="none" xmlns="http://www.w3.org/2000/svg">
<circle cx="30" cy="30" r="28.75" fill="#5EC3C5" fill-opacity="0.08" stroke="#5EC3C5" stroke-width="1.5"/>
<path d="M28.5937 39.125L20.3437 30.875C20.2187 30.75 20.13 30.6145 20.0775 30.4687C20.025 30.3229 19.9992 30.1666 20 30C20 29.8333 20.0262 29.677 20.0787 29.5312C20.1312 29.3854 20.2196 29.25 20.3437 29.125L28.5937 20.875C28.8229 20.6458 29.1096 20.5262 29.4537 20.5162C29.7979 20.5062 30.0946 20.6258 30.3437 20.875C30.5937 21.1041 30.7242 21.3908 30.735 21.735C30.7458 22.0791 30.6258 22.3758 30.375 22.625L24.25 28.75H38.2187C38.5729 28.75 38.87 28.87 39.11 29.11C39.35 29.35 39.4696 29.6466 39.4687 30C39.4687 30.3541 39.3492 30.6512 39.11 30.8912C38.8708 31.1312 38.5737 31.2508 38.2187 31.25H24.25L30.375 37.375C30.6042 37.6041 30.7242 37.8958 30.735 38.25C30.7458 38.6041 30.6258 38.8958 30.375 39.125C30.1458 39.375 29.8542 39.5 29.5 39.5C29.1458 39.5 28.8437 39.375 28.5937 39.125Z" fill="#5EC3C5"/>
</svg>
