<svg width="28" height="28" viewBox="0 0 28 28" fill="none" xmlns="http://www.w3.org/2000/svg">
<path d="M10.625 27.5C9.35 27.5 8.25 27.056 7.325 26.168C6.4 25.28 5.875 24.212 5.75 22.964C4.25 22.763 3 22.1 2 20.975C1 19.85 0.5 18.525 0.5 17C0.5 16.475 0.569 15.9565 0.707 15.4445C0.845 14.9325 1.051 14.451 1.325 14C1.05 13.55 0.844 13.075 0.707 12.575C0.57 12.075 0.501 11.55 0.5 11C0.5 9.475 1 8.156 2 7.043C3 5.93 4.2375 5.274 5.7125 5.075C5.7875 3.8 6.3 2.7185 7.25 1.8305C8.2 0.942502 9.325 0.499002 10.625 0.500002C11.275 0.500002 11.8815 0.625002 12.4445 0.875002C13.0075 1.125 13.526 1.4625 14 1.8875C14.45 1.4625 14.9625 1.125 15.5375 0.875002C16.1125 0.625002 16.725 0.500002 17.375 0.500002C18.675 0.500002 19.794 0.937502 20.732 1.8125C21.67 2.6875 22.176 3.7625 22.25 5.0375C23.725 5.2375 24.969 5.9 25.982 7.025C26.995 8.15 27.501 9.475 27.5 11C27.5 11.55 27.431 12.075 27.293 12.575C27.155 13.075 26.949 13.55 26.675 14C26.95 14.45 27.1565 14.9315 27.2945 15.4445C27.4325 15.9575 27.501 16.476 27.5 17C27.5 18.55 26.994 19.8815 25.982 20.9945C24.97 22.1075 23.7135 22.7635 22.2125 22.9625C22.0875 24.2125 21.5685 25.2815 20.6555 26.1695C19.7425 27.0575 18.649 27.501 17.375 27.5C16.75 27.5 16.1435 27.381 15.5555 27.143C14.9675 26.905 14.449 26.574 14 26.15C13.525 26.575 13 26.9065 12.425 27.1445C11.85 27.3825 11.25 27.501 10.625 27.5ZM15.5 5.375V22.625C15.5 23.15 15.6815 23.594 16.0445 23.957C16.4075 24.32 16.851 24.501 17.375 24.5C17.875 24.5 18.3065 24.3 18.6695 23.9C19.0325 23.5 19.226 23.05 19.25 22.55C18.725 22.35 18.2435 22.0815 17.8055 21.7445C17.3675 21.4075 16.974 21.001 16.625 20.525C16.375 20.175 16.281 19.8 16.343 19.4C16.405 19 16.6115 18.675 16.9625 18.425C17.3125 18.175 17.6875 18.0815 18.0875 18.1445C18.4875 18.2075 18.8125 18.4135 19.0625 18.7625C19.3375 19.1625 19.6875 19.469 20.1125 19.682C20.5375 19.895 21 20.001 21.5 20C22.325 20 23.0315 19.706 23.6195 19.118C24.2075 18.53 24.501 17.824 24.5 17C24.5 16.875 24.4935 16.75 24.4805 16.625C24.4675 16.5 24.4365 16.375 24.3875 16.25C23.9625 16.5 23.506 16.6875 23.018 16.8125C22.53 16.9375 22.024 17 21.5 17C21.075 17 20.7185 16.856 20.4305 16.568C20.1425 16.28 19.999 15.924 20 15.5C20 15.075 20.144 14.7185 20.432 14.4305C20.72 14.1425 21.076 13.999 21.5 14C22.325 14 23.0315 13.706 23.6195 13.118C24.2075 12.53 24.501 11.824 24.5 11C24.5 10.175 24.206 9.475 23.618 8.9C23.03 8.325 22.324 8.025 21.5 8C21.225 8.45 20.8685 8.844 20.4305 9.182C19.9925 9.52 19.5115 9.7885 18.9875 9.9875C18.5875 10.1375 18.2 10.125 17.825 9.95C17.45 9.775 17.2 9.4875 17.075 9.0875C16.95 8.6875 16.969 8.3 17.132 7.925C17.295 7.55 17.576 7.3 17.975 7.175C18.35 7.05 18.6565 6.825 18.8945 6.5C19.1325 6.175 19.251 5.8 19.25 5.375C19.25 4.85 19.069 4.4065 18.707 4.0445C18.345 3.6825 17.901 3.501 17.375 3.5C16.85 3.5 16.406 3.6815 16.043 4.0445C15.68 4.4075 15.499 4.851 15.5 5.375ZM12.5 22.625V5.375C12.5 4.85 12.3185 4.406 11.9555 4.043C11.5925 3.68 11.149 3.499 10.625 3.5C10.1 3.5 9.656 3.6815 9.293 4.0445C8.93 4.4075 8.749 4.851 8.75 5.375C8.75 5.775 8.8625 6.144 9.0875 6.482C9.3125 6.82 9.6125 7.051 9.9875 7.175C10.3875 7.3 10.675 7.55 10.85 7.925C11.025 8.3 11.05 8.6875 10.925 9.0875C10.775 9.4875 10.5125 9.775 10.1375 9.95C9.7625 10.125 9.375 10.1375 8.975 9.9875C8.45 9.7875 7.9685 9.519 7.5305 9.182C7.0925 8.845 6.7365 8.451 6.4625 8C5.6625 8.025 4.969 8.3315 4.382 8.9195C3.795 9.5075 3.501 10.201 3.5 11C3.5 11.825 3.794 12.5315 4.382 13.1195C4.97 13.7075 5.676 14.001 6.5 14C6.925 14 7.2815 14.144 7.5695 14.432C7.8575 14.72 8.001 15.076 8 15.5C8 15.925 7.856 16.2815 7.568 16.5695C7.28 16.8575 6.924 17.001 6.5 17C5.975 17 5.469 16.9375 4.982 16.8125C4.495 16.6875 4.0385 16.5 3.6125 16.25C3.5625 16.375 3.531 16.5 3.518 16.625C3.505 16.75 3.499 16.875 3.5 17C3.5 17.825 3.794 18.5315 4.382 19.1195C4.97 19.7075 5.676 20.001 6.5 20C7 20 7.4625 19.8935 7.8875 19.6805C8.3125 19.4675 8.6625 19.1615 8.9375 18.7625C9.1875 18.4125 9.5125 18.206 9.9125 18.143C10.3125 18.08 10.6875 18.174 11.0375 18.425C11.3875 18.675 11.594 19 11.657 19.4C11.72 19.8 11.626 20.175 11.375 20.525C11.025 21 10.625 21.4125 10.175 21.7625C9.725 22.1125 9.2375 22.3875 8.7125 22.5875C8.7375 23.0875 8.9375 23.5315 9.3125 23.9195C9.6875 24.3075 10.125 24.501 10.625 24.5C11.15 24.5 11.594 24.3185 11.957 23.9555C12.32 23.5925 12.501 23.149 12.5 22.625Z" fill="#FFB637"/>
</svg>
