<svg width="72" height="72" viewBox="0 0 72 72" fill="none" xmlns="http://www.w3.org/2000/svg">
<circle cx="36" cy="36" r="36" fill="white"/>
<g clip-path="url(#clip0_1_466)">
<path d="M36.6667 35.9333C37.3111 35.2222 37.8058 34.4111 38.1507 33.5C38.4956 32.5889 38.6676 31.6444 38.6667 30.6666C38.6667 29.6889 38.4942 28.7444 38.1493 27.8333C37.8045 26.9222 37.3102 26.1111 36.6667 25.4C38 25.5778 39.1111 26.1666 40 27.1666C40.8889 28.1666 41.3333 29.3333 41.3333 30.6666C41.3333 32 40.8889 33.1666 40 34.1666C39.1111 35.1666 38 35.7555 36.6667 35.9333ZM43.3667 46.6666C43.5667 46.5111 43.7222 46.3164 43.8333 46.0826C43.9445 45.8489 44 45.588 44 45.3V42.6666C44 41.8666 43.8222 41.1053 43.4667 40.3826C43.1111 39.66 42.6444 39.0213 42.0667 38.4666C43.2 38.8666 44.2502 39.3835 45.2173 40.0173C46.1845 40.6511 46.6676 41.5342 46.6667 42.6666V45.3333C46.6667 45.7111 46.5387 46.028 46.2827 46.284C46.0267 46.54 45.7102 46.6675 45.3333 46.6666H43.3667ZM48 37.3333C47.6222 37.3333 47.3053 37.2053 47.0493 36.9493C46.7933 36.6933 46.6658 36.3769 46.6667 36V34.6666H45.3333C44.9556 34.6666 44.6387 34.5386 44.3827 34.2826C44.1267 34.0266 43.9991 33.7102 44 33.3333C44 32.9555 44.128 32.6386 44.384 32.3826C44.64 32.1266 44.9565 31.9991 45.3333 32H46.6667V30.6666C46.6667 30.2889 46.7947 29.972 47.0507 29.716C47.3067 29.46 47.6231 29.3324 48 29.3333C48.3778 29.3333 48.6947 29.4613 48.9507 29.7173C49.2067 29.9733 49.3342 30.2898 49.3333 30.6666V32H50.6667C51.0445 32 51.3613 32.128 51.6173 32.384C51.8733 32.64 52.0009 32.9564 52 33.3333C52 33.7111 51.872 34.028 51.616 34.284C51.36 34.54 51.0436 34.6675 50.6667 34.6666H49.3333V36C49.3333 36.3778 49.2053 36.6946 48.9493 36.9506C48.6933 37.2066 48.3769 37.3342 48 37.3333ZM30.6667 36C29.2 36 27.9444 35.4778 26.9 34.4333C25.8556 33.3889 25.3333 32.1333 25.3333 30.6666C25.3333 29.2 25.8556 27.9444 26.9 26.9C27.9444 25.8555 29.2 25.3333 30.6667 25.3333C32.1333 25.3333 33.3889 25.8555 34.4333 26.9C35.4778 27.9444 36 29.2 36 30.6666C36 32.1333 35.4778 33.3889 34.4333 34.4333C33.3889 35.4778 32.1333 36 30.6667 36ZM21.3333 46.6666C20.9556 46.6666 20.6387 46.5386 20.3827 46.2826C20.1267 46.0266 19.9991 45.7102 20 45.3333V42.9333C20 42.1778 20.1947 41.4831 20.584 40.8493C20.9733 40.2155 21.4898 39.7324 22.1333 39.4C23.5111 38.7111 24.9111 38.1942 26.3333 37.8493C27.7556 37.5044 29.2 37.3324 30.6667 37.3333C32.1333 37.3333 33.5778 37.5058 35 37.8506C36.4222 38.1955 37.8222 38.712 39.2 39.4C39.8444 39.7333 40.3613 40.2169 40.7507 40.8506C41.14 41.4844 41.3342 42.1786 41.3333 42.9333V45.3333C41.3333 45.7111 41.2053 46.028 40.9493 46.284C40.6933 46.54 40.3769 46.6675 40 46.6666H21.3333ZM30.6667 33.3333C31.4 33.3333 32.028 33.072 32.5507 32.5493C33.0733 32.0266 33.3342 31.3991 33.3333 30.6666C33.3333 29.9333 33.072 29.3053 32.5493 28.7826C32.0267 28.26 31.3991 27.9991 30.6667 28C29.9333 28 29.3053 28.2613 28.7827 28.784C28.26 29.3066 27.9991 29.9342 28 30.6666C28 31.4 28.2613 32.028 28.784 32.5506C29.3067 33.0733 29.9342 33.3342 30.6667 33.3333ZM22.6667 44H38.6667V42.9333C38.6667 42.6889 38.6053 42.4666 38.4827 42.2666C38.36 42.0666 38.1991 41.9111 38 41.8C36.8 41.2 35.5889 40.7502 34.3667 40.4506C33.1444 40.1511 31.9111 40.0009 30.6667 40C29.4222 40 28.1889 40.1502 26.9667 40.4506C25.7444 40.7511 24.5333 41.2009 23.3333 41.8C23.1333 41.9111 22.972 42.0666 22.8493 42.2666C22.7267 42.4666 22.6658 42.6889 22.6667 42.9333V44Z" fill="#B50700"/>
</g>
<defs>
<clipPath id="clip0_1_466">
<rect width="32" height="32" fill="white" transform="translate(20 20)"/>
</clipPath>
</defs>
</svg>
