<svg width="72" height="72" viewBox="0 0 72 72" fill="none" xmlns="http://www.w3.org/2000/svg">
<circle cx="36" cy="36" r="36" fill="white"/>
<path d="M38.6667 38.6667C39.0445 38.6667 39.3614 38.5387 39.6174 38.2827C39.8725 38.0276 40 37.7111 40 37.3334V34.6667H42.6667C43.0445 34.6667 43.3609 34.5387 43.616 34.2827C43.872 34.0276 44 33.7111 44 33.3334C44 32.9556 43.872 32.6387 43.616 32.3827C43.3609 32.1276 43.0445 32 42.6667 32H40V29.3334C40 28.9556 39.8725 28.6387 39.6174 28.3827C39.3614 28.1276 39.0445 28 38.6667 28C38.2889 28 37.9725 28.1276 37.7174 28.3827C37.4614 28.6387 37.3334 28.9556 37.3334 29.3334V32H34.6667C34.2889 32 33.9725 32.1276 33.7174 32.3827C33.4614 32.6387 33.3334 32.9556 33.3334 33.3334C33.3334 33.7111 33.4614 34.0276 33.7174 34.2827C33.9725 34.5387 34.2889 34.6667 34.6667 34.6667H37.3334V37.3334C37.3334 37.7111 37.4614 38.0276 37.7174 38.2827C37.9725 38.5387 38.2889 38.6667 38.6667 38.6667ZM30.6667 44C29.9334 44 29.3058 43.7391 28.784 43.2174C28.2614 42.6947 28 42.0667 28 41.3334V25.3334C28 24.6 28.2614 23.972 28.784 23.4494C29.3058 22.9276 29.9334 22.6667 30.6667 22.6667H46.6667C47.4 22.6667 48.028 22.9276 48.5507 23.4494C49.0725 23.972 49.3334 24.6 49.3334 25.3334V41.3334C49.3334 42.0667 49.0725 42.6947 48.5507 43.2174C48.028 43.7391 47.4 44 46.6667 44H30.6667ZM30.6667 41.3334H46.6667V25.3334H30.6667V41.3334ZM25.3334 49.3334C24.6 49.3334 23.9725 49.0725 23.4507 48.5507C22.928 48.028 22.6667 47.4 22.6667 46.6667V29.3334C22.6667 28.9556 22.7947 28.6387 23.0507 28.3827C23.3058 28.1276 23.6222 28 24 28C24.3778 28 24.6947 28.1276 24.9507 28.3827C25.2058 28.6387 25.3334 28.9556 25.3334 29.3334V46.6667H42.6667C43.0445 46.6667 43.3609 46.7947 43.616 47.0507C43.872 47.3058 44 47.6222 44 48C44 48.3778 43.872 48.6942 43.616 48.9494C43.3609 49.2054 43.0445 49.3334 42.6667 49.3334H25.3334Z" fill="#5EC3C5"/>
</svg>
