<svg width="45" height="57" viewBox="0 0 45 57" fill="none" xmlns="http://www.w3.org/2000/svg">
<path d="M3.75226 34.3817C5.03016 35.6596 6.30806 36.8992 7.58596 38.1515C8.05239 38.6052 8.55077 39.0269 9.0172 39.4869C10.6529 41.1163 12.2822 42.752 13.8477 44.4516L15.969 46.6815C16.9161 47.613 17.7058 48.6919 18.3075 49.8763C18.4736 50.2788 18.3075 50.2724 17.988 50.0615C17.4987 49.7479 17.037 49.393 16.6079 49.0009C16.3843 48.7709 16.1351 48.5472 15.9051 48.3236L15.5409 47.9977L15.1831 47.691L13.7901 46.2917C12.8637 45.3589 11.9116 44.4324 11.0043 43.4484C9.92451 42.2728 8.653 41.1865 7.46456 40.062L3.55419 36.3178C2.7555 35.5382 1.96321 34.7651 1.18369 33.9473C1.03673 33.7939 0.883385 33.6406 0.742816 33.4744C0.602248 33.3083 0.595858 33.3147 0.525574 33.2252C0.455289 33.1358 0.378616 33.0591 0.282773 32.9186C0.0864244 32.6903 -0.01428 32.395 0.00163581 32.0943C0.0255674 31.9467 0.0685214 31.8028 0.129426 31.6662C0.186931 31.5256 0.263605 31.3787 0.308331 31.2956C0.742816 30.5161 1.23481 29.8388 1.68846 29.1296C2.40408 28.0434 3.05581 26.9444 3.70754 25.8582C3.8545 25.6154 3.9759 25.3726 4.13563 25.1425C4.33383 24.8361 4.55831 24.5475 4.80653 24.28C4.95958 24.1511 5.14153 24.0612 5.33686 24.018C5.41202 23.9916 5.48887 23.9703 5.56688 23.9541C5.6755 23.9541 5.73301 24.0499 5.73939 24.2864C5.74334 24.6095 5.67798 24.9298 5.54771 25.2256C4.65957 27.4492 3.08776 29.3468 1.95682 31.3915C1.86098 31.5768 1.75874 31.7621 1.67568 31.9346L1.61818 32.0624C1.61818 32.1007 1.61818 32.0624 1.61818 32.0624V32.0624L1.74597 32.2221L1.95043 32.4585C2.5127 33.0975 3.15804 33.7364 3.7906 34.3754L3.75226 34.3817Z" fill="#B50700"/>
<path d="M23.5341 37.4681C23.5341 37.4681 25.0101 37.3722 25.2401 36.5352C25.4701 35.6982 25.2401 39.0399 25.2401 39.0399L23.5341 37.4681Z" fill="#B50700"/>
<path d="M25.7002 30.5418L21.8026 30.7207L20.3905 30.823L17.8858 30.9571C17.0488 30.9571 16.2118 31.0146 15.3748 31.0658C14.6336 31.1169 13.8924 31.1808 13.164 31.2447L10.3334 31.4939C10.0395 31.4939 10.0779 31.4939 10.3334 31.4555C10.589 31.4172 11.0299 31.2958 11.5666 31.2063C13.4835 30.8805 15.4003 30.5674 17.3172 30.3565L20.8697 29.9796L24.7865 29.6409L27.1953 29.462C28.4157 29.3662 29.6361 29.2895 30.8437 29.1617C31.783 29.0722 32.6903 28.9061 33.6167 28.7783C33.8212 28.7783 34.0193 28.7144 34.2557 28.6953C35.016 28.6186 35.2652 28.6953 35.4569 28.9572C35.5041 29.0166 35.5448 29.0809 35.5783 29.1489C35.6742 29.3725 35.3802 29.5834 34.8244 29.7048C33.1258 30.0444 31.4045 30.258 29.6744 30.3438L25.7002 30.561V30.5418Z" fill="#B50700"/>
<path d="M14.0202 28.3759L13.1959 27.3344C13.0937 27.2066 12.9787 27.0916 12.8829 26.9638C12.557 26.491 12.2439 26.0118 11.9308 25.5262L11.5091 24.8872C11.3195 24.6328 11.1707 24.3504 11.0682 24.0502C11.0107 23.8521 11.3941 23.9799 11.605 24.2419C11.9628 24.7466 12.3909 25.2195 12.7679 25.7434C13.017 26.0443 13.2815 26.3322 13.5601 26.606L14.4291 27.59L14.9722 28.1906C15.2534 28.4909 15.5281 28.7976 15.8284 29.0723C16.0744 29.2725 16.3303 29.4602 16.5952 29.6346C16.6551 29.6692 16.7127 29.7076 16.7677 29.7496C16.9657 29.9157 16.9785 30.018 16.8316 30.248C16.8012 30.3035 16.7671 30.3569 16.7293 30.4077C16.6187 30.5697 16.4037 30.6221 16.231 30.5291C15.721 30.2334 15.2634 29.8556 14.8764 29.411C14.5761 29.0851 14.2885 28.772 13.9946 28.4078L14.0202 28.3759Z" fill="#B50700"/>
<path d="M5.63079 34.4202C7.17065 36.1901 8.76803 37.9089 10.3654 39.6276C10.9596 40.2666 11.6433 40.8225 12.2056 41.4614C14.2822 43.7105 16.314 46.0107 18.3331 48.3429C19.2084 49.3908 20.1349 50.4131 21.0294 51.4546L21.8984 52.4705C22.154 52.8475 22.4032 53.2117 22.6268 53.6206C23.1407 54.4574 23.4615 55.3981 23.5661 56.3745C23.5661 57.1476 23.138 56.8729 22.6268 56.5789C21.9057 56.2668 21.222 55.8746 20.5886 55.4097C20.2947 55.1349 19.9816 54.8666 19.6557 54.5982C19.3581 54.307 19.0766 53.9999 18.8123 53.6781L17.0999 51.7613L16.2373 50.8028L15.4131 49.7869C14.8636 49.1032 14.3205 48.4132 13.7838 47.7103C12.3817 46.0587 10.8884 44.4865 9.31113 43.0013C7.66264 41.2761 6.01416 39.5318 4.39123 37.7491C3.38169 36.6693 2.39132 35.5511 1.42012 34.3371L1.15176 33.9665C1.04314 33.8132 0.934515 33.6279 0.825893 33.4554C0.628825 33.1176 0.500695 32.744 0.448914 32.3564C0.484273 31.9562 0.574574 31.5627 0.717272 31.1871C0.896178 30.791 1.0048 30.5482 1.14537 30.2862C1.6757 29.2511 2.23797 28.2863 2.75552 27.3087C3.15806 26.542 3.52226 25.7752 3.86729 25.0021C4.21232 24.229 4.50624 23.4367 4.90878 22.7147C5.08768 22.3888 5.21547 22.0757 5.39438 21.7499C5.60094 21.3232 5.86305 20.9257 6.17389 20.5678C6.40327 20.3768 6.67487 20.2432 6.96619 20.178C7.10037 20.178 7.24094 20.0886 7.35595 20.0694C7.47096 20.0502 7.6882 20.1844 7.79682 20.5039C7.93327 20.9472 7.95307 21.4181 7.85433 21.8713C7.70098 22.6827 7.5093 23.4878 7.29844 24.2737C7.1968 24.6644 7.05993 25.0451 6.88952 25.411C6.73617 25.7816 6.57004 26.1458 6.40392 26.51C5.73302 27.9668 4.98545 29.3917 4.34011 30.7782L3.97591 31.513C3.91757 31.629 3.86636 31.7485 3.82256 31.8708L3.76506 32.0114V32.0114C3.75517 32.0057 3.74299 32.0057 3.73311 32.0114C3.66921 31.9347 3.89285 32.2286 4.02703 32.4075L4.53819 33.0465C4.90239 33.4746 5.28576 33.9027 5.67551 34.3244L5.63079 34.4202Z" fill="#B50700"/>
<path d="M38.0447 17.0216C38.7052 18.6828 39.4912 20.2912 40.396 21.8329C41.3097 23.4047 42.3128 24.9254 43.4182 26.5036L44.5428 28.1202L44.7344 28.625L44.8239 28.8805L44.875 29.0019V29.0658V29.0658H44.7728V29.0658C44.8013 29.2372 44.8013 29.412 44.7728 29.5834C44.7242 29.763 44.6556 29.9366 44.5683 30.1009C44.3742 30.449 44.1609 30.7861 43.9294 31.1105L43.6355 31.5194L43.4246 31.8005C40.3896 35.6726 37.3035 39.3976 34.3963 43.3016C33.1184 45.0332 31.8405 46.803 30.6967 48.5729C29.9428 49.7103 29.2336 50.8795 28.5307 52.036C27.8279 53.1925 27.01 54.2915 26.3711 55.4544C25.9877 56.17 25.7321 56.0103 25.5788 55.1669C25.4528 53.8336 25.6433 52.4895 26.1347 51.2437C27.4311 48.6942 28.8843 46.2274 30.4859 43.8575C32.1344 41.5381 33.8723 39.2954 35.6997 37.1038C36.7859 35.8259 37.8338 34.4138 38.8561 33.0081L41.4566 29.3917C41.4566 29.3406 41.5589 29.2767 41.5205 29.2192L41.4183 29.0594C41.4183 28.9955 41.3416 28.9316 41.2969 28.8614L41.1691 28.6697L40.9838 28.4077L40.2426 27.3598C39.757 26.6698 39.2459 25.9669 38.7667 25.2194C37.7823 23.7533 36.8862 22.2299 36.0831 20.6573C35.7956 20.095 35.5272 19.5199 35.2716 18.9385C35.1374 18.651 35.0224 18.357 34.901 18.0631L34.7669 17.7373L34.6966 17.52C34.6578 17.3867 34.6042 17.2581 34.5368 17.1367C34.4022 17.1088 34.2653 17.0938 34.1279 17.0919H33.917H32.7989C31.9171 17.0472 31.0354 17.2644 30.1473 17.2261L27.4892 17.2836L24.8312 17.3858C23.9494 17.3858 23.0677 17.4433 22.1859 17.4881C19.4512 17.635 16.7804 18.0312 14.0841 18.3315C13.4899 18.3954 12.9148 18.504 12.3142 18.5487C11.7136 18.5935 11.2983 18.6062 10.9085 18.5998C10.5713 18.5502 10.2437 18.4489 9.9373 18.2995C9.48515 18.0743 9.10134 17.7324 8.82553 17.3092C8.70055 17.1479 8.58533 16.9794 8.4805 16.8044C8.3591 16.5297 8.51884 16.2677 8.9022 15.9354C9.42865 15.4715 10.0438 15.1194 10.7104 14.9003C13.1604 14.4121 15.6344 14.0538 18.1222 13.8269C19.4001 13.6991 20.678 13.5947 21.9559 13.5138C23.2338 13.4371 24.5117 13.3285 25.7896 13.3477H28.3454H29.6233C30.0503 13.3382 30.4773 13.3595 30.9012 13.4116C31.3357 13.4819 31.7702 13.5713 32.1791 13.6224H33.4953C33.6295 13.6224 34.1854 13.6224 34.5688 13.6544C34.7827 13.6571 34.9961 13.6741 35.2077 13.7055H35.5144C35.6076 13.7255 35.6964 13.7623 35.7764 13.8141C35.9451 13.8838 36.0959 13.9909 36.2173 14.1272L36.4153 14.2997V14.2997C36.4792 14.2103 36.2875 14.4914 36.5559 14.108V14.108V14.108L36.5942 14.1592L36.6773 14.2742L37.3482 15.1559L37.8785 16.3827L38.1149 16.9641L38.0447 17.0216Z" fill="#B50700"/>
<path d="M25.3296 31.2575C23.5661 31.3341 21.7962 31.43 20.0327 31.5706C19.3937 31.6153 18.7548 31.7622 18.1158 31.7942C15.8284 31.8836 13.541 31.9859 11.2599 32.1712C10.7488 32.2095 10.2504 32.2862 9.73923 32.3245L8.22492 32.4651C7.58597 32.529 6.94702 32.6056 6.30807 32.644H5.81608L5.3177 32.5865C4.97906 32.5481 4.64681 32.5098 4.30177 32.4395C4.08453 32.4012 3.96313 32.3181 3.99508 32.2862C4.02703 32.2542 4.12926 32.2287 4.289 32.1264C4.50978 31.9934 4.72309 31.8484 4.92794 31.692L5.35604 31.3853C5.43271 31.3214 5.51578 31.283 5.59884 31.2127L5.85442 31.1297C7.13232 30.7591 8.41021 30.3693 9.68811 30.0562C10.966 29.8646 12.3142 29.7176 13.656 29.6473C15.2534 29.577 16.8507 29.1745 18.5056 29.0084C20.2947 28.8295 22.0901 28.6889 23.8856 28.5675L27.2145 28.3566C28.8885 28.248 30.5817 28.2097 32.2494 28.0947C32.8883 28.0499 33.5273 27.9733 34.1662 27.8966L35.1374 27.7816C35.2972 27.7816 35.4633 27.7369 35.623 27.7305H36.115C36.4089 27.7305 36.6901 27.7305 36.984 27.7305C38.0638 27.8583 38.4025 28.1074 38.5558 28.74C38.6003 28.8713 38.6345 29.0059 38.658 29.1425C38.7092 29.5451 38.2363 29.9668 37.4952 30.1137C36.9393 30.2479 36.3834 30.3821 35.8147 30.5291C35.254 30.6388 34.6859 30.7072 34.1151 30.7335C32.9714 30.823 31.7957 30.8997 30.6201 30.9635C28.8694 31.0722 27.0931 31.1488 25.3232 31.2894L25.3296 31.2575Z" fill="#B50700"/>
<path d="M25.7704 24.0947C25.1315 24.7337 24.4925 25.3726 23.8536 26.0116L21.8665 27.9476C21.3809 28.4204 20.9591 28.9507 20.448 29.4172L19.7388 30.0561C19.3795 30.3849 18.9926 30.682 18.5823 30.9442C18.3751 31.0397 18.1616 31.1209 17.9433 31.187C17.7296 31.2077 17.514 31.1947 17.3044 31.1487C16.8555 31.0145 16.4471 30.7708 16.1159 30.4395C15.9306 30.2861 15.7581 30.12 15.5856 29.9539L15.2342 29.5705C15.0233 29.3469 14.8252 29.1105 14.6336 28.8804L13.5026 27.4939C12.8637 26.6825 12.1353 25.9093 11.426 25.1682C10.9413 24.7208 10.4926 24.2358 10.0842 23.7177C9.68809 23.1938 9.31111 22.6443 8.90218 22.1204C8.65299 21.7945 8.76801 21.7114 9.20249 21.737C9.88674 21.7827 10.5564 21.9561 11.1768 22.2482L11.6497 22.5101C11.8101 22.5862 11.9586 22.6852 12.0905 22.804L12.8573 23.5069C13.362 23.9797 13.854 24.4589 14.3269 24.9445C15.2725 25.9157 16.1926 26.9189 17.0232 27.9029C17.0976 27.9743 17.1582 28.0587 17.2021 28.152C17.2409 28.2062 17.2836 28.2575 17.3299 28.3054C17.3764 28.3568 17.436 28.3943 17.5024 28.414C17.5663 28.414 17.6174 28.3629 17.6749 28.3246C17.7271 28.2834 17.7762 28.2385 17.8219 28.1904L18.1094 27.8837L18.9401 26.9892L22.6843 22.9574L23.8855 21.737L25.2082 20.4591C25.6216 20.0245 26.0924 19.6483 26.6075 19.3409C26.8473 19.2297 27.1045 19.1605 27.3678 19.1365C27.6168 19.2299 27.8464 19.3686 28.0451 19.5454C28.4994 19.942 28.9264 20.369 29.323 20.8233L30.2047 21.7753C31.1184 22.7401 32.1216 23.5772 33.1056 24.4781C33.3228 24.6762 33.5528 24.8487 33.7445 25.0595C33.8404 25.1554 33.9234 25.2512 34.0001 25.3343C34.0768 25.4173 34.1087 25.526 34.1534 25.609C34.2288 25.7622 34.2805 25.9259 34.3068 26.0946C34.3258 26.2405 34.3127 26.3888 34.2684 26.5291C34.2042 26.6947 34.1228 26.8532 34.0256 27.0019C33.9362 27.1489 33.8723 27.2958 33.7892 27.4045C33.5656 27.7303 32.7414 27.8517 32.0513 27.4045C31.7847 27.2618 31.5359 27.0881 31.3101 26.8869C31.0737 26.7016 30.8437 26.5036 30.6201 26.3055C30.1664 25.9093 29.7319 25.494 29.3038 25.0659C28.8757 24.6378 28.454 24.1969 28.0259 23.788L27.387 23.1171L27.1378 22.8424V22.8424C27.1378 22.8424 27.1378 22.8424 27.1378 22.804C27.1378 22.7657 27.1378 22.804 27.0931 22.804V22.804L26.9844 22.9254L26.7544 23.1619L25.8279 24.1458L25.7704 24.0947Z" fill="#B50700"/>
<path d="M14.1991 36.8291C14.4802 36.6182 14.7614 36.4202 15.0233 36.1901C15.1192 36.1135 15.1703 35.9984 15.2725 35.9282C15.6239 35.6662 16.0009 35.4298 16.3332 35.1614C16.4724 35.0367 16.5872 34.8872 16.6718 34.7206C16.7868 34.5097 16.8252 34.2413 17.1319 34.1774C17.3235 34.1327 18.6973 35.3787 18.5503 35.6406C18.2777 36.0935 17.8715 36.4506 17.3874 36.663C17.0744 36.7971 16.9466 37.0974 16.7485 37.3019C16.5504 37.5064 16.2437 37.7556 15.9945 37.9792C15.7453 38.2028 15.6814 38.2539 15.5345 38.4009C15.3111 38.6032 15.0978 38.8164 14.8955 39.0398C14.755 39.2251 14.7039 39.4807 14.5505 39.6788C14.5305 39.7259 14.5023 39.7691 14.4674 39.8066C14.3205 39.9408 14.1863 39.9152 13.8732 39.7299L13.656 39.6021C13.452 39.4847 13.3096 39.284 13.2662 39.0526C13.2278 38.7728 13.2278 38.489 13.2662 38.2092C13.3334 37.9875 13.4234 37.7734 13.5346 37.5703C13.6688 37.238 13.9818 37.0527 14.2183 36.8099L14.1991 36.8291Z" fill="#B50700"/>
<path d="M27.3806 39.1548C27.3533 39.3348 27.2926 39.5082 27.2017 39.6659L26.9972 40.094L26.5755 40.9758C26.4669 41.0844 26.403 41.2697 26.2752 41.3783C26.2507 41.3703 26.2271 41.3596 26.2049 41.3464C25.1635 40.7383 24.1946 40.0138 23.3169 39.1867L22.7355 38.6372L22.4415 38.3753L22.2115 38.0238C22.0134 37.7491 21.7451 37.5702 21.6492 37.436C21.5103 37.2808 21.4057 37.0978 21.3425 36.8993C21.3042 36.7587 21.5726 36.4776 21.924 36.2603C22.2754 36.0431 22.7482 35.8259 22.9719 35.9345L23.253 36.075H23.2913C23.2913 36.075 23.2913 36.075 23.2913 36.1325C23.3187 36.3137 23.3771 36.4887 23.4639 36.6501C23.5153 36.7691 23.5916 36.8759 23.6875 36.9632C23.7578 37.0271 23.7961 37.0143 23.8856 37.1037C23.9061 37.1143 23.9254 37.1271 23.9431 37.1421C23.9942 37.1421 24.0709 37.2571 24.122 37.2635C24.1573 37.2506 24.1898 37.2311 24.2178 37.206C24.2775 37.1526 24.3254 37.0873 24.3584 37.0143C24.4144 36.8911 24.449 36.7593 24.4606 36.6245C24.5227 36.3317 24.5227 36.0292 24.4606 35.7364C24.406 35.5356 24.322 35.344 24.2114 35.1677C24.122 34.9761 24.0197 34.7844 23.9431 34.5799C23.9047 34.4904 23.8408 34.401 23.86 34.3052C23.8983 33.9282 24.1284 33.7429 24.7929 33.6662C24.941 33.6439 25.0904 33.6311 25.2401 33.6279C25.6547 33.6053 26.0681 33.6889 26.4414 33.8707L26.7417 34.0624C26.8181 34.1265 26.8867 34.1994 26.9461 34.2796C27.0627 34.4307 27.1633 34.5934 27.2464 34.7652C27.3046 34.9383 27.3495 35.1156 27.3806 35.2955V35.4297L27.419 35.6981L27.4828 36.2284C27.5796 37.2143 27.5796 38.2072 27.4828 39.1931L27.3806 39.1548Z" fill="#B50700"/>
<path d="M12.6209 10.0443C12.819 10.0443 12.672 10.2935 12.3397 10.7344C12.1738 10.9317 11.9801 11.1039 11.7647 11.2455C11.6212 11.2906 11.4735 11.3206 11.3238 11.335C10.9776 11.1797 10.6405 11.0048 10.3143 10.811C10.0953 10.6898 9.90379 10.5245 9.752 10.3254C9.43252 9.94206 9.11305 9.57147 8.79358 9.1881C8.72654 9.09638 8.67873 8.99206 8.65301 8.88141C8.56271 8.50629 8.37031 8.1635 8.09712 7.89104C8.05878 7.83992 8.03323 7.77603 7.93099 7.77603C7.82876 7.77603 7.20898 6.88789 7.20259 6.73454C7.15299 6.35725 7.12313 5.97762 7.11314 5.59721C7.11314 5.5461 7.06841 5.50776 7.11314 5.4247C7.20529 5.31862 7.22539 5.16784 7.16426 5.04133C7.12731 4.88868 7.11013 4.73192 7.11314 4.57489C7.13894 4.47044 7.18214 4.37108 7.24093 4.28098C7.28566 4.19791 7.54124 4.13402 7.57318 4.14041C7.60513 4.1468 7.77126 4.07012 7.87349 4.0254L7.97572 3.98706C8.13673 4.03656 8.29287 4.10072 8.44215 4.17875C8.61196 4.2448 8.7783 4.31944 8.94053 4.40238C8.94053 4.40238 9.15139 4.59406 9.40058 4.77936C9.64977 4.96465 9.82867 5.20106 9.88618 5.23301C9.94368 5.26496 9.93729 5.3608 9.94368 5.43108C9.95007 5.50137 10.6274 6.07003 10.6465 6.07003C10.7296 6.22977 10.9085 6.332 10.8382 6.60036C10.8382 6.65787 10.8382 6.67703 10.8765 6.70898C11.0686 6.9625 11.2275 7.23948 11.3494 7.53323C11.4343 7.67088 11.5304 7.80125 11.6369 7.92298C11.6369 7.92298 11.6369 7.98688 11.6369 8.01883C11.6369 8.05077 11.6369 8.10828 11.6688 8.13384C11.8706 8.45813 12.1062 8.76012 12.3717 9.03476C12.4484 9.08587 12.5186 9.57147 12.6081 9.62259C12.6976 9.6737 12.5442 10.0443 12.6209 10.0443Z" fill="#B50700"/>
<path d="M30.9459 8.12104C31.0035 8.31911 30.7031 8.29355 30.192 8.12104C29.9621 8.02373 29.7471 7.89469 29.553 7.73767C29.4686 7.61815 29.3938 7.49209 29.3294 7.36069C29.3294 7.29679 29.4125 6.52367 29.4252 6.24892C29.4363 5.99671 29.4971 5.74917 29.6042 5.52052C29.8086 5.06047 29.9875 4.58765 30.1856 4.12761C30.2299 4.02032 30.2975 3.92427 30.3837 3.84647C30.6726 3.57602 30.8768 3.22755 30.9715 2.84332C30.9715 2.77943 31.0354 2.72831 30.9715 2.63247C31.0191 2.19732 31.1727 1.78048 31.4188 1.41847L32.243 0.670896C32.2813 0.638949 32.243 0.575054 32.39 0.581443C32.5295 0.611765 32.6711 0.539632 32.7286 0.408927C32.8187 0.28143 32.9288 0.169248 33.0545 0.0766738C33.1637 0.0298035 33.2807 0.00379749 33.3995 0C33.5547 0.0290251 33.6998 0.0972056 33.8212 0.198074C33.8915 0.306695 34.0576 0.325864 34.1918 0.383369L34.326 0.447264C34.4619 0.815366 34.5479 1.20003 34.5816 1.59098C34.5816 1.59098 34.5113 1.90407 34.441 2.22993C34.3707 2.55579 34.2621 2.86888 34.2621 2.95194C34.2621 3.03501 34.1662 3.06695 34.1087 3.11807C34.0512 3.16919 33.8404 4.11483 33.8212 4.14678C33.7062 4.31929 33.6998 4.53654 33.4251 4.63238C33.3676 4.63238 33.3612 4.69627 33.3484 4.73461C33.2032 5.0551 33.0209 5.35746 32.8053 5.63553C32.7175 5.79288 32.6386 5.955 32.5689 6.12113C32.5689 6.15308 32.5114 6.16586 32.4858 6.19141C32.4603 6.21697 32.4091 6.24253 32.3964 6.28087C32.1808 6.65204 31.9929 7.03858 31.8341 7.43736C31.8341 7.5396 31.374 7.84629 31.3485 7.96769C31.3229 8.08909 30.9204 8.07631 30.9459 8.12104Z" fill="#B50700"/>
<path d="M24.4223 24.8041L23.0422 26.1843C22.876 26.3568 22.7355 26.5549 22.5693 26.721C21.9751 27.3216 21.3681 27.9158 20.7931 28.5292C20.5375 28.804 20.3011 29.0979 20.071 29.3918C19.7956 29.8188 19.4263 30.1772 18.9912 30.4397C18.8187 30.5291 18.7612 30.331 18.7165 30.0882C18.6245 29.8387 18.6245 29.5646 18.7165 29.3151C18.9514 28.8996 19.2322 28.5116 19.5535 28.1586C19.8795 27.7809 20.225 27.4205 20.5886 27.0788C20.9948 26.6396 21.3746 26.1766 21.7259 25.6923C22.1476 25.1811 22.5821 24.6827 23.0038 24.1907L23.8408 23.2962C24.2625 22.8426 24.7034 22.4017 25.1187 21.9353C25.4318 21.5711 25.6874 21.1621 26.0197 20.7724C26.0963 20.6893 26.1602 20.5935 26.2369 20.5168C26.3525 20.4078 26.5079 20.3515 26.6665 20.3612C26.825 20.3709 26.9725 20.4457 27.0739 20.5679L27.2273 20.7212C27.2951 20.8163 27.3309 20.9304 27.3295 21.0471C27.3401 21.186 27.3204 21.3255 27.272 21.456C27.2063 21.6469 27.1067 21.8244 26.9781 21.98C26.8567 22.1269 26.7353 22.3058 26.6011 22.4592C26.3391 22.7659 26.0516 23.0981 25.7577 23.4048L24.4351 24.8297L24.4223 24.8041Z" fill="#B50700"/>
</svg>
