<svg width="72" height="72" viewBox="0 0 72 72" fill="none" xmlns="http://www.w3.org/2000/svg">
<circle cx="36" cy="36" r="36" fill="white"/>
<path d="M32 49.3333C30.8889 49.3333 29.9444 48.9444 29.1667 48.1666C28.3889 47.3889 28 46.4444 28 45.3333C28 44.2222 28.3889 43.2778 29.1667 42.5C29.9444 41.7222 30.8889 41.3333 32 41.3333C33.1111 41.3333 34.0556 41.7222 34.8333 42.5C35.6111 43.2778 36 44.2222 36 45.3333C36 46.4444 35.6111 47.3889 34.8333 48.1666C34.0556 48.9444 33.1111 49.3333 32 49.3333ZM37.9667 44.7C37.8333 43.4778 37.3778 42.4 36.6 41.4666C35.8222 40.5333 34.8555 39.9 33.7 39.5666L37.2333 36H27.8667C27.1556 36 26.5556 35.7555 26.0667 35.2666C25.5778 34.7778 25.3333 34.1778 25.3333 33.4666C25.3333 33.0222 25.4502 32.6053 25.684 32.216C25.9178 31.8266 26.2231 31.5102 26.6 31.2666L42.8 21.5666C43.2 21.3222 43.6222 21.2609 44.0667 21.3826C44.5111 21.5044 44.8556 21.7658 45.1 22.1666C45.3444 22.5666 45.4058 22.9835 45.284 23.4173C45.1622 23.8511 44.912 24.1898 44.5333 24.4333L32 32H44.1333C44.8444 32 45.4444 32.2444 45.9333 32.7333C46.4222 33.2222 46.6667 33.8222 46.6667 34.5333C46.6667 34.9333 46.6169 35.328 46.5173 35.7173C46.4178 36.1066 46.2231 36.4453 45.9333 36.7333L37.9667 44.7Z" fill="#FFB637"/>
</svg>
