<svg width="72" height="72" viewBox="0 0 72 72" fill="none" xmlns="http://www.w3.org/2000/svg">
<circle cx="36" cy="36" r="36" fill="white"/>
<path d="M30.6667 38.6666H41.3333V37.9333C41.3333 36.9555 40.8444 36.1666 39.8667 35.5666C38.8889 34.9666 37.6 34.6666 36 34.6666C34.4 34.6666 33.1111 34.9666 32.1333 35.5666C31.1556 36.1666 30.6667 36.9555 30.6667 37.9333V38.6666ZM36 33.3333C36.7333 33.3333 37.3613 33.072 37.884 32.5493C38.4067 32.0266 38.6676 31.3991 38.6667 30.6666C38.6667 29.9333 38.4053 29.3053 37.8827 28.7826C37.36 28.26 36.7324 27.9991 36 28C35.2667 28 34.6387 28.2613 34.116 28.784C33.5933 29.3066 33.3324 29.9342 33.3333 30.6666C33.3333 31.4 33.5947 32.028 34.1173 32.5506C34.64 33.0733 35.2676 33.3342 36 33.3333ZM22.6667 49.3333V25.3333C22.6667 24.6 22.928 23.972 23.4507 23.4493C23.9733 22.9266 24.6009 22.6657 25.3333 22.6666H46.6667C47.4 22.6666 48.028 22.928 48.5507 23.4506C49.0733 23.9733 49.3342 24.6009 49.3333 25.3333V41.3333C49.3333 42.0666 49.072 42.6946 48.5493 43.2173C48.0267 43.74 47.3991 44.0009 46.6667 44H28L22.6667 49.3333ZM25.3333 42.9L26.9 41.3333H46.6667V25.3333H25.3333V42.9Z" fill="#B50700"/>
</svg>
