<svg width="44" height="54" viewBox="0 0 44 54" fill="none" xmlns="http://www.w3.org/2000/svg">
<path d="M13.41 33.9933C14.1999 33.8004 14.8905 33.3221 15.3489 32.6506C15.443 32.5251 15.5936 32.3494 15.65 32.2678L15.8571 31.9918C16.0014 31.8035 16.1144 31.6592 16.2524 31.4961C16.3904 31.3329 16.7104 31.0945 16.9175 30.8686L17.0179 30.7745L17.0932 30.6929C17.1234 30.6564 17.157 30.6228 17.1936 30.5925C17.2745 30.5092 17.3801 30.4542 17.4947 30.4357C17.7583 30.4357 17.8147 30.718 17.8649 30.9816C17.8649 31.0129 17.8649 31.1886 17.8649 31.2953C17.8649 31.4019 17.8649 31.5463 17.8649 31.6718C17.864 31.9178 17.843 32.1633 17.8022 32.4059C17.7119 32.9732 17.5408 33.5247 17.294 34.0435C17.2061 34.2004 17.294 34.3635 17.6014 34.4325C18.064 34.5151 18.5368 34.3567 18.8563 34.0121C19.0112 33.8382 19.1537 33.6537 19.283 33.46C19.3853 33.2616 19.4613 33.0506 19.5089 32.8325C19.6042 32.4457 19.663 32.0508 19.6846 31.6529L19.7222 31.0568C19.7311 30.7364 19.7185 30.4157 19.6846 30.0968C19.5918 29.5296 19.2753 29.0233 18.8061 28.6914C18.2277 28.3637 17.5266 28.3357 16.9238 28.6161C16.6056 28.7483 16.3027 28.9145 16.0202 29.1118C15.7978 29.2524 15.5879 29.4119 15.3928 29.5886C15.0143 29.9369 14.6639 30.3145 14.3449 30.718C13.9685 31.1698 13.9622 31.2388 13.7928 31.427C13.708 31.5473 13.5836 31.6339 13.4414 31.6718C13.2942 31.6756 13.1587 31.5918 13.0963 31.4584C13.033 31.3664 12.9804 31.2675 12.9395 31.1635C12.911 31.1065 12.8858 31.0478 12.8642 30.9878L12.7638 30.7306L12.2744 29.4757C12.0402 28.7491 11.731 28.0489 11.352 27.3863C11.2589 27.23 11.154 27.0811 11.0383 26.9408C10.889 26.7352 10.6624 26.5993 10.4108 26.5643C10.1826 26.6132 9.97725 26.7368 9.8273 26.9157C9.74542 26.9886 9.66985 27.0684 9.60142 27.1541C9.50347 27.3017 9.44711 27.4729 9.43828 27.6498C9.37881 27.8333 9.37881 28.031 9.43828 28.2145C9.87749 29.1406 10.2671 30.0893 10.6053 31.0568L10.9002 31.7784C10.9677 31.9937 11.0516 32.2035 11.1512 32.4059C11.2295 32.6102 11.3328 32.8041 11.4587 32.9831C11.568 33.1577 11.6987 33.3179 11.8477 33.46L12.061 33.6608L12.3057 33.8114C12.6468 34.0037 13.0395 34.0848 13.4289 34.0435L13.41 33.9933Z" fill="#B50700"/>
<path d="M21.7803 41.5729C23.9468 38.9922 25.9083 36.246 27.6469 33.3596C29.4843 30.3633 30.7006 27.0282 31.2234 23.5525C31.6186 20.922 31.3798 18.2352 30.5269 15.7156C29.6823 13.4677 28.2395 11.4933 26.3544 10.0058C24.48 8.56497 22.2559 7.64891 19.9104 7.35172C17.6375 7.05328 15.3273 7.2328 13.1277 7.87878C10.9151 8.53723 8.90682 9.74869 7.29241 11.3988C5.91986 12.8536 4.80581 14.5321 3.99829 16.3619C3.21881 18.1287 2.62173 19.9704 2.21633 21.8584C1.9562 23.0721 1.78424 24.303 1.70182 25.5415C1.60272 26.7498 1.5692 27.9626 1.60143 29.1745C1.63391 31.5772 1.80571 33.976 2.11594 36.3588C2.31672 37.8333 2.74339 37.6137 3.2077 36.3211C3.8298 34.2842 4.18415 32.175 4.26182 30.0466C4.30574 28.8545 4.39986 27.6686 4.47515 26.5078C4.54257 25.3739 4.67455 24.2447 4.87045 23.1258C5.29018 20.9211 6.00567 18.7831 6.99751 16.7698C7.49217 15.8213 8.08524 14.9275 8.76692 14.1031C9.44208 13.3191 10.221 12.631 11.0822 12.0576C11.9727 11.5047 12.9271 11.0622 13.9246 10.74C14.983 10.4232 16.0729 10.2233 17.1748 10.1439C19.8093 9.90362 22.4354 10.6854 24.5097 12.3274C26.5501 14.0491 27.8636 16.4789 28.1865 19.129C28.3772 20.6222 28.354 22.1349 28.1175 23.6215C27.8605 25.1391 27.4398 26.6244 26.8626 28.0513C25.5755 30.9626 23.9315 33.7025 21.9685 36.2082C20.9395 37.576 19.8665 38.9188 18.7622 40.2553L15.6626 43.976C15.5622 44.089 15.4806 44.2145 15.374 44.3149C15.2673 44.4152 15.0854 44.2772 14.9536 44.227C14.8218 44.1768 14.6085 44.0325 14.4391 43.9258L13.5105 43.2984C12.883 42.8717 12.2179 42.4388 11.5465 42.0435C11.214 41.8364 10.8689 41.6294 10.5238 41.416L9.97162 41.1149C9.75829 41.0019 9.57633 40.9015 9.30653 40.776C8.37178 40.3107 7.38045 39.969 6.35751 39.7596C5.49566 39.5904 4.60916 39.5904 3.74731 39.7596C2.93159 39.9063 2.17556 40.2854 1.57006 40.8513C1.26306 41.1457 1.12608 41.5756 1.20614 41.9933C1.29719 42.3257 1.45996 42.6341 1.683 42.8968C2.18097 43.5217 2.76879 44.0694 3.42731 44.5219C4.05476 44.9611 4.78888 45.4003 5.51672 45.8396L6.57712 46.467L6.97868 46.7305L7.32378 46.969C7.76999 47.2741 8.18977 47.6163 8.57869 47.9917C8.90308 48.2833 9.16186 48.6405 9.3379 49.0396L9.37555 49.1525L10.2791 48.8576C10.2929 48.8509 10.3091 48.8509 10.323 48.8576C10.3795 48.8576 10.323 48.8576 10.323 48.8576C10.323 48.8576 10.323 48.8576 10.323 48.8137L10.2728 48.7133C10.2477 48.6472 10.2349 48.577 10.2352 48.5062C10.1993 48.2991 10.1825 48.089 10.185 47.8788H10.0532C9.83359 47.8411 9.56378 47.7721 9.30025 47.7031L7.63751 47.2388C6.06261 46.8121 3.94182 46.2223 2.58025 46.3353C2.20564 46.3552 1.83482 46.4205 1.47594 46.5298C1.13837 46.6493 0.830297 46.8397 0.572409 47.0882C0.473988 47.2478 0.399969 47.4212 0.352802 47.6027C0.328348 47.7481 0.328348 47.8965 0.352802 48.0419C0.406816 48.432 0.527811 48.8099 0.710449 49.1588C0.929684 49.5763 1.20403 49.9625 1.52613 50.307C2.21301 50.9768 2.95149 51.5915 3.73476 52.1454L4.15515 52.4592C4.25554 52.5401 4.36027 52.6155 4.46888 52.6851C4.61319 52.7666 4.74496 52.8356 4.87045 52.8921C5.10413 52.9943 5.34537 53.0782 5.59202 53.1431C5.81773 53.2278 6.02929 53.3463 6.21947 53.4945C6.37006 53.5949 6.51437 53.5886 6.62731 53.3627C6.75275 53.0117 6.75275 52.6282 6.62731 52.2772C6.55209 52.0369 6.4555 51.8038 6.33868 51.5807C6.27903 51.4556 6.21199 51.334 6.1379 51.2168L6.08143 51.1227C6.08143 51.1227 6.08143 51.1227 6.08143 51.0788V51.0035C6.01315 50.8309 5.92914 50.665 5.83045 50.5078C5.76894 50.4169 5.7164 50.3202 5.67359 50.2192C5.66703 50.1797 5.66703 50.1394 5.67359 50.1C5.66809 50.0713 5.67532 50.0417 5.69338 50.0188C5.71145 49.9959 5.73857 49.982 5.7677 49.9807C6.00779 49.9766 6.24508 50.0327 6.4579 50.1439L6.68378 50.2443L6.77163 50.2945H6.80927L6.90339 50.3321L8.25868 50.696C8.79697 50.843 9.34392 50.9562 9.89633 51.0349H10.2352H10.5112C10.6576 51.0273 10.8027 51.0041 10.9442 50.9658C11.0641 50.9377 11.1817 50.8999 11.2955 50.8529L11.4775 50.7713C11.6283 50.6866 11.7692 50.5856 11.8979 50.4702C12.4346 50.002 12.695 49.292 12.5881 48.5878C12.5881 48.5062 12.5881 48.4184 12.5504 48.3431C12.5128 48.2678 12.494 48.1549 12.5003 48.18V48.1423V48.067L12.4375 47.9102C12.3687 47.7156 12.2804 47.5285 12.174 47.3517C12.0882 47.182 11.9874 47.0203 11.8728 46.8686C11.5018 46.3427 11.0653 45.8662 10.574 45.4505C10.1348 45.0741 9.70182 44.7415 9.26888 44.4341L8.64143 44.0325L8.45947 43.907L8.62261 43.9949L8.88614 44.1392C9.11202 44.2647 9.3379 44.4027 9.56378 44.5345C10.4673 45.0866 11.3646 45.7015 12.3371 46.3478L12.7073 46.5925L13.0148 46.7933L13.3724 47.0129C13.8288 47.3035 14.32 47.5354 14.8344 47.7031C15.3128 47.8348 15.8179 47.8348 16.2963 47.7031C16.4128 47.6756 16.5206 47.6195 16.6101 47.54L16.9112 47.3329L17.5387 46.9188L21.9936 41.6482L21.7803 41.5729Z" fill="#B50700"/>
<path d="M16.0077 27.2671C15.4627 27.6206 14.965 28.0423 14.5269 28.522L14.2571 28.8169V28.8734L14.1881 28.9988L14.0124 29.3188C13.981 29.3628 13.9371 29.4945 13.8869 29.4443C13.8567 29.4093 13.8332 29.3688 13.8179 29.3251C13.7614 29.1808 13.7803 28.9612 13.705 28.8106C13.705 28.8106 13.705 28.8106 13.705 28.7416L13.6359 28.4906L13.4728 27.9385L13.3724 27.631L13.2093 27.242C13.0925 26.9715 12.9496 26.713 12.7826 26.4702C12.5078 26.0261 12.1145 25.6676 11.6469 25.4349C11.1836 25.2148 10.6589 25.1595 10.1599 25.2781C9.65436 25.3912 9.18324 25.6236 8.78574 25.9557C8.5864 26.1258 8.39583 26.3059 8.21476 26.4953C8.06417 26.6898 7.94496 26.8969 7.81319 27.1228C7.43347 27.8252 7.20277 28.5985 7.13554 29.3941C7.09162 29.7267 7.09162 30.0216 7.06025 30.3604C7.02888 30.6992 7.06025 30.9879 7.06025 31.3016C7.05333 31.9069 7.07847 32.5122 7.13554 33.1149C7.21084 33.8804 7.30496 34.6334 7.42417 35.3738C7.48692 35.7439 7.67515 36.0953 7.74417 36.4592C7.81319 36.8232 7.90104 37.1871 7.96378 37.551C8.02653 37.9149 8.25241 37.9463 8.49084 37.551C8.64344 37.2809 8.7655 36.9947 8.85476 36.6977C8.92378 36.5157 8.94888 36.3275 9.0179 36.1204C9.10549 35.9159 9.18091 35.7064 9.24378 35.493C9.33162 34.7087 9.3128 33.962 9.363 33.2216L9.43202 32.1361C9.43202 31.7847 9.43202 31.4334 9.48221 31.0945C9.51302 30.4765 9.61406 29.8639 9.78339 29.2687C9.81181 29.1431 9.85389 29.0211 9.90888 28.9047C9.9528 28.8169 10.003 28.66 10.0281 28.6224C10.1034 28.4718 10.1159 28.3902 10.1661 28.2898C10.2303 28.1572 10.3584 28.067 10.505 28.0514C10.65 28.077 10.7725 28.1736 10.8312 28.3087C10.867 28.3769 10.8964 28.4483 10.9191 28.522C10.963 28.6412 11.032 28.842 11.0885 29.0428L11.1826 29.369L11.3206 29.9338L11.5653 31.0694C11.6717 31.729 11.927 32.3556 12.312 32.9016C12.385 32.9912 12.4647 33.0751 12.5504 33.1526C12.6446 33.2425 12.7585 33.3091 12.883 33.3471C12.9897 33.366 13.0997 33.3435 13.1904 33.2843C13.2783 33.2341 13.3473 33.2153 13.454 33.1463L13.7614 32.9581L14.1253 32.6757L14.2195 32.6067L14.3199 32.4749L14.5144 32.2114L14.9034 31.6906L15.2924 31.151L15.694 30.6867C15.763 30.6114 15.8257 30.5298 15.901 30.4608L16.0328 30.3165C16.1206 30.2349 16.1959 30.1408 16.2838 30.0655C16.6083 29.7414 16.9834 29.4723 17.3944 29.2687C17.5397 29.2023 17.7025 29.1847 17.8587 29.2185C18.0128 29.27 18.1482 29.3661 18.2477 29.4945C18.4056 29.7118 18.4751 29.9809 18.4422 30.2475C18.4115 30.6546 18.3184 31.0545 18.1661 31.4334C17.8321 32.2806 17.3914 33.0819 16.8548 33.8177C15.9759 34.9547 14.9905 36.0052 13.912 36.9549C13.6799 37.1745 13.4352 37.369 13.2093 37.5824C12.3559 38.4043 12.1928 38.7494 12.4124 39.3706C12.4529 39.5132 12.5011 39.6536 12.5567 39.791C12.7763 40.2177 13.4226 40.1612 14.1755 39.6153C16.5064 37.891 18.4654 35.7143 19.9355 33.2153C20.248 32.669 20.5005 32.0905 20.6885 31.4898C20.7896 31.1367 20.861 30.7757 20.9018 30.4106C20.9182 30.1704 20.9182 29.9293 20.9018 29.689C20.8814 29.4351 20.8308 29.1844 20.7512 28.9424C20.717 28.8206 20.6751 28.7012 20.6257 28.5847L20.4438 28.2522C20.3234 28.0275 20.1782 27.817 20.0108 27.6247C19.8352 27.4616 19.6469 27.2985 19.4524 27.1479C19.2521 27.0175 19.0424 26.9021 18.825 26.8028C17.8656 26.5189 16.8304 26.6605 15.9826 27.1918L16.0077 27.2671Z" fill="#B50700"/>
<path d="M33.363 12.1513C33.1685 12.1513 33.225 12.4211 33.4383 12.8415C33.5475 13.0343 33.6923 13.2046 33.865 13.3434C33.9911 13.3939 34.1212 13.4338 34.254 13.4626C34.3167 13.4626 35.0634 13.2179 35.3395 13.1615C35.5872 13.0957 35.8225 12.9897 36.0359 12.8477C36.4752 12.5842 36.9332 12.3395 37.385 12.0822C37.4875 12.0257 37.5755 11.9463 37.6422 11.8501C37.8923 11.531 38.2209 11.2824 38.5959 11.1285C38.6579 11.0794 38.7407 11.0652 38.8155 11.0909C39.2595 10.9906 39.6688 10.774 40.0014 10.4634C40.1771 10.0932 40.3967 9.78578 40.5975 9.44695C40.6289 9.40303 40.6854 9.39676 40.6665 9.28381C40.6163 9.03283 40.723 8.99519 40.7983 8.90734C40.9128 8.77329 40.9887 8.61062 41.0179 8.43676C41.0344 8.32021 41.0344 8.20193 41.0179 8.08538C41.0179 7.97872 40.8359 7.80303 40.7983 7.79048C40.7606 7.77793 40.6603 7.63362 40.5975 7.54578C40.5781 7.51192 40.5549 7.48034 40.5285 7.45166C40.5285 7.45166 40.2273 7.41401 39.901 7.35754C39.6931 7.32634 39.4816 7.32634 39.2736 7.35754L39.0791 7.43911L38.6587 7.60225L37.9371 7.8595C37.8681 7.8595 37.843 7.97244 37.7991 8.04774C37.7552 8.12303 36.8704 8.4995 36.8391 8.53087C36.6885 8.67519 36.4689 8.72538 36.4187 9.02029C36.4187 9.07676 36.3685 9.0893 36.3308 9.1144C36.0543 9.31972 35.8018 9.55545 35.5779 9.81715C35.4461 9.94264 35.2767 10.0305 35.1324 10.1434C35.1324 10.1434 35.0948 10.2062 35.0759 10.2375C35.0571 10.2689 35.032 10.3254 34.9944 10.3442C34.6608 10.6326 34.3087 10.8988 33.9403 11.1411C33.8461 11.1913 33.5889 11.6744 33.4822 11.7246C33.3755 11.7748 33.4383 12.1575 33.363 12.1513Z" fill="#B50700"/>
<path d="M28.814 7.57762C28.6697 7.70311 28.9081 7.84742 29.3599 7.97291C29.566 8.01658 29.7772 8.03136 29.9873 8.01683C30.1191 7.95409 30.2446 7.89762 30.3387 7.84115C30.4328 7.78468 30.7214 7.2137 30.872 6.99409C31.0017 6.8036 31.0953 6.59092 31.1481 6.36664C31.2736 5.9337 31.4305 5.50703 31.5811 5.06154C31.6033 4.95814 31.6033 4.85121 31.5811 4.74781C31.5399 4.38088 31.6075 4.00993 31.7756 3.68115C31.7756 3.62468 31.7756 3.56193 31.9073 3.52428C32.1585 3.18089 32.3006 2.76989 32.3152 2.34468C32.1897 1.97448 32.1269 1.61683 32.0328 1.25919C32.0328 1.20899 32.0328 1.16507 31.9701 1.10232C31.8365 1.04761 31.7621 0.904219 31.7944 0.763499C31.7808 0.599228 31.7245 0.441349 31.6312 0.30546C31.5589 0.218892 31.4768 0.140988 31.3865 0.0733031C31.2723 0.0227647 31.1456 0.00747139 31.0226 0.0293815C30.9285 0.0858521 30.8093 0.0293815 30.7026 0.0293815H30.5897C30.5897 0.0293815 30.3512 0.198793 30.1003 0.355656C29.9447 0.457897 29.8051 0.582653 29.6862 0.725852C29.6862 0.725852 29.6548 0.794872 29.6109 0.895264L29.4289 1.25291C29.2971 1.51644 29.1277 1.77997 29.1026 1.84272C29.0775 1.90546 29.1026 1.97448 29.1026 2.0435C29.1026 2.11252 28.7512 2.90311 28.745 2.94075C28.745 3.12899 28.6132 3.29213 28.7763 3.52428C28.7953 3.55954 28.7953 3.60197 28.7763 3.63722C28.6993 3.96189 28.6635 4.29497 28.6697 4.6286C28.648 4.79552 28.6166 4.96103 28.5756 5.12428C28.5696 5.15748 28.5696 5.19148 28.5756 5.22468C28.5874 5.26567 28.5874 5.30918 28.5756 5.35017C28.5296 5.75909 28.4625 6.16538 28.3748 6.56742C28.3434 6.66154 28.5065 7.15095 28.4626 7.25762C28.4187 7.36428 28.8642 7.5337 28.814 7.57762Z" fill="#B50700"/>
<path d="M34.5489 18.5136C34.3607 18.4133 34.2477 18.6831 34.2038 19.1411C34.2056 19.3557 34.2459 19.5682 34.323 19.7685C34.4234 19.8815 34.5175 19.9944 34.6054 20.076C34.9738 20.1914 35.3361 20.3254 35.6908 20.4776C35.9302 20.5859 36.1837 20.6598 36.4438 20.6972C36.9583 20.8038 37.4728 20.9482 38.0061 21.0925C38.1283 21.1175 38.2542 21.1175 38.3763 21.0925C38.7967 21.0155 39.2299 21.0524 39.6312 21.1991C39.7065 21.1991 39.7818 21.1991 39.832 21.3246C40.2731 21.5597 40.763 21.6886 41.2626 21.7011C41.6893 21.5693 42.1097 21.5066 42.5175 21.4125C42.574 21.4125 42.6305 21.4125 42.6995 21.3372C42.8501 21.105 42.9693 21.1615 43.0948 21.1489C43.2818 21.1153 43.4634 21.0562 43.6344 20.9733C43.7362 20.9033 43.8271 20.8188 43.9042 20.7223C43.9857 20.6407 43.9606 20.3521 43.9418 20.3144C43.923 20.2768 43.9418 20.076 43.9418 19.9568C43.9418 19.8376 43.9418 19.8627 43.9418 19.825C43.8077 19.661 43.6653 19.5039 43.5152 19.3544C43.3845 19.1765 43.223 19.0235 43.0383 18.9027L42.825 18.8274L42.3732 18.6517L41.6454 18.3442C41.5763 18.3066 41.4822 18.3442 41.4006 18.3442C41.3191 18.3442 40.3214 17.9489 40.2712 17.9489C40.0391 17.9489 39.8257 17.8046 39.5559 17.9803C39.5057 18.018 39.4618 17.9803 39.4116 17.9803C38.9999 17.8891 38.5764 17.8637 38.1567 17.905C37.9434 17.905 37.7363 17.8736 37.5293 17.8674C37.4916 17.8674 37.4477 17.8674 37.4101 17.905C37.3611 17.922 37.3107 17.9346 37.2595 17.9427C36.745 17.8987 36.2305 17.9991 35.7097 17.9427C35.5842 17.9427 35.0132 18.1936 34.8752 18.1874C34.7371 18.1811 34.6179 18.5513 34.5489 18.5136Z" fill="#B50700"/>
</svg>
