<svg width="53" height="53" viewBox="0 0 53 53" fill="none" xmlns="http://www.w3.org/2000/svg">
<path d="M11.8611 41.2286L11.8078 41.167C11.8078 41.167 11.8179 41.1384 11.7554 41.1485L11.7386 41.1051C11.7328 41.0552 11.7326 41.0048 11.738 40.9549L11.7579 40.6405C11.7629 40.5351 11.7763 40.4059 11.7881 40.2815C11.7998 40.1571 11.8368 40.1434 11.8637 40.0672L11.9841 39.8472C12.1699 39.5484 12.3651 39.2531 12.5346 38.97L12.7304 38.6427L12.8573 38.4197C13.2022 37.8195 13.5046 37.1959 13.7621 36.5533C13.954 36.0854 14.0696 35.5905 14.2282 35.1108C14.7835 33.3743 15.1144 31.5738 15.2129 29.7533C15.2622 28.9326 15.2482 28.1092 15.171 27.2906C15.0315 26.2522 14.9478 25.207 14.9203 24.1596C14.9245 23.829 15.2187 23.8149 15.5726 24.0415C16.0372 24.3444 16.3733 24.8083 16.5166 25.3441C16.5822 25.6136 16.6461 25.8879 16.6924 26.1667L16.7762 26.582C16.7914 26.7213 16.8018 26.8588 16.8105 27.0012C16.8615 27.5549 16.884 28.0985 16.8802 28.6863C16.8757 29.8196 16.7657 30.95 16.5515 32.0629C16.3249 33.4295 16.0262 34.7831 15.6565 36.1182C15.4217 36.847 15.1415 37.5603 14.8174 38.254C14.658 38.5996 14.4779 38.9431 14.2963 39.2755L14.1593 39.5271L14.0904 39.6314L13.9462 39.843L13.7576 40.1193C13.7441 40.1428 13.735 40.1686 13.7307 40.1955C13.7307 40.1955 13.7736 40.2106 13.7927 40.2173C13.8117 40.2241 13.8879 40.2509 13.9356 40.2677L14.6571 40.3937C16.0454 40.636 17.4053 41.0189 18.7161 41.5364C19.7417 41.9075 20.7403 42.3492 21.7047 42.8585C21.9152 42.9756 22.1307 43.0784 22.3344 43.2145C23.0877 43.7213 23.2166 44.0239 23.0533 44.502C23.0218 44.614 22.9831 44.7238 22.9374 44.8307C22.7575 45.1583 22.2929 45.139 21.7622 44.8821C20.1794 43.9946 18.5183 43.2544 16.7999 42.6709C16.1462 42.4613 15.4814 42.2876 14.8087 42.1506L14.3054 42.0588C13.9916 42.007 13.6234 41.9574 13.2804 41.9275C13.1076 41.92 12.9355 41.9004 12.7654 41.869L12.5219 41.8153C12.4504 41.7901 12.3933 41.7699 12.3266 41.7464C12.2695 41.7224 12.2203 41.6828 12.1848 41.6321L12.0718 41.5119L11.851 41.2572L11.8611 41.2286Z" fill="#FFB637"/>
<path d="M17.0749 26.6768C17.0809 29.5023 16.6329 32.3103 15.748 34.9936C15.4405 35.9564 15.1663 36.931 14.8136 37.8244C14.4994 38.6241 14.166 39.4172 13.9041 40.1443L13.805 40.4254C13.7763 40.492 13.7522 40.5604 13.7327 40.6302C13.6788 40.7745 13.726 40.9371 13.8488 41.0301C13.9895 41.0959 14.1363 41.1476 14.2871 41.1847L15.5217 41.481C16.3621 41.6649 17.2086 41.8618 18.0515 42.0842C19.5747 42.4521 21.0731 42.9162 22.5376 43.4739C23.5171 43.8492 24.4413 44.3554 25.2849 44.9787C25.7084 45.324 26.0889 45.719 26.418 46.1551C26.7423 46.6107 26.9738 47.1255 27.0994 47.6704C27.2489 48.3552 26.8641 48.3373 26.2381 48.1379C25.8384 48.0132 25.4307 47.9159 25.0178 47.8467C24.8074 47.7911 24.6019 47.7186 24.4032 47.6299C24.2 47.5526 24.0043 47.4566 23.8187 47.3433C23.6592 47.2335 23.4818 47.1442 23.3095 47.0405C23.1372 46.9369 22.9665 46.8284 22.7958 46.72C22.4284 46.5105 22.0504 46.32 21.6634 46.1491C20.8479 45.7886 20.0114 45.4775 19.1585 45.2173C18.2797 44.9448 17.3797 44.7022 16.4538 44.472L13.4267 43.7148C12.9404 43.6241 12.4712 43.4585 12.0356 43.2241C11.9405 43.164 11.8493 43.0979 11.7627 43.026L11.6982 42.9658C11.7083 42.9372 11.6982 42.9658 11.6982 42.9658L11.6601 42.9524L11.5376 42.8288C11.4536 42.7441 11.3831 42.6469 11.3286 42.5408C11.268 42.4391 11.22 42.3304 11.1856 42.2172C11.0223 41.7644 10.9801 41.2768 11.0632 40.8027C11.0894 40.5533 11.137 40.3067 11.2055 40.0655C11.2287 39.9424 11.2591 39.8207 11.2965 39.7012L11.3872 39.4439C11.7844 38.1967 12.2157 37.0954 12.6106 35.9759C13.5188 33.5849 14.0758 31.075 14.2644 28.5244C14.3574 26.9633 14.2683 25.3967 13.9989 23.8562C13.9566 23.627 13.9207 23.3947 13.8624 23.1652L13.7869 22.8172C13.7437 22.6359 13.7037 22.4611 13.6523 22.2876C13.4034 21.5356 13.1732 20.8062 12.9361 20.1119L12.7221 18.8205L12.6791 17.9857C12.7026 17.919 12.6303 17.8507 12.718 17.7691C12.8009 17.7195 12.8926 17.6863 12.9881 17.6716C13.1688 17.6421 13.3521 17.6314 13.5351 17.6396C13.9282 17.6532 14.3179 17.7169 14.6949 17.8291C15.2743 18.003 15.8306 18.246 16.3519 18.5529C16.935 18.877 17.4996 19.2335 18.0428 19.6208L18.4654 19.9413L18.5694 20.0262L18.645 20.085L18.793 20.2122C18.9979 20.3755 19.2055 20.5613 19.3798 20.7352C19.7575 21.1059 20.1078 21.5033 20.428 21.9246C20.7209 22.2974 20.9802 22.6954 21.2029 23.1139C21.38 23.4453 21.5207 23.7949 21.6226 24.1565C21.682 24.4101 21.6947 24.6723 21.6602 24.9304C21.6377 25.1235 21.5722 25.309 21.4686 25.4735C21.3471 25.6202 21.2074 25.7509 21.0529 25.8625C20.9348 25.9646 20.8116 26.0606 20.6836 26.1501C20.3656 26.3378 19.5739 25.8336 19.0804 25.0006C18.7478 24.3624 18.3498 23.7606 17.8926 23.2049C17.6678 22.925 17.4248 22.6604 17.165 22.4126C17.0395 22.2826 16.9058 22.1605 16.7626 22.035L16.7091 21.9893L16.6519 21.9691C16.5477 21.9913 16.6166 22.0692 16.6183 22.0644C16.6183 22.0644 16.6284 22.0358 16.6284 22.1269L16.7204 22.5343C16.7877 22.7991 16.8227 23.0793 16.8724 23.3486C17.0615 24.4488 17.1703 25.5613 17.1979 26.6774L17.0749 26.6768Z" fill="#FFB637"/>
<path d="M29.859 28.1709C29.8828 27.9061 29.908 27.6525 29.9511 27.3785L30.0043 26.9848L30.0577 26.6662L30.2277 25.8048C30.3478 25.2365 30.4822 24.6733 30.6214 24.1117C30.7606 23.5502 30.9171 23.0001 31.072 22.4548L31.1863 22.0398C31.2165 21.954 31.2165 21.954 31.2216 21.9398L31.2384 21.8921L31.3056 21.7016C31.3829 21.4824 31.3756 21.3513 31.4708 21.1117C31.5162 20.9831 31.5666 20.8402 31.6221 20.683C31.6546 20.6052 31.6827 20.5257 31.7061 20.4448C31.7195 20.4067 31.703 20.3473 31.6789 20.3548C31.6548 20.3624 31.6503 20.3448 31.626 20.3683C31.4498 20.4522 31.2848 20.5577 31.1348 20.6825C30.9843 20.7901 30.8126 20.9277 30.6212 21.0905L30.3195 21.3537L29.6471 21.9843L26.8126 24.659C26.2085 25.2482 25.5699 25.801 24.9002 26.3145C24.5512 26.5669 24.1859 26.7959 23.8067 27C23.4027 27.2142 22.9731 27.3759 22.5281 27.481C21.9442 27.6179 21.913 27.023 22.0878 26.3454C22.135 26.1837 22.1911 26.0247 22.2558 25.8691C22.3178 25.6884 22.3941 25.5128 22.4838 25.3442C22.664 24.9982 22.9218 24.6986 23.2372 24.469C24.4774 23.5078 25.6669 22.4827 26.8007 21.3979C27.4198 20.8272 28.0256 20.2588 28.6181 19.6929C29.1821 19.1419 29.7236 18.5937 30.2548 18.0901C30.786 17.5865 31.3155 17.0877 31.8126 16.7113L32.1774 16.4061L32.36 16.283C32.4111 16.2541 32.4658 16.232 32.5226 16.2172L32.8299 16.0899L33.1406 15.9531C33.2241 15.929 33.3009 15.924 33.3797 15.8982C33.5296 15.8592 33.6816 15.8288 33.835 15.807L34.0432 15.7787C34.1403 15.7551 34.2428 15.7756 34.3234 15.8347C34.4471 15.9569 34.5355 16.1102 34.5793 16.2785C34.6322 16.4382 34.6768 16.6006 34.713 16.7649C34.8163 17.2767 34.8126 17.8042 34.702 18.3145C34.5455 19.1377 34.2624 20.077 34.0297 20.9645L33.4379 23.2037C33.1573 24.2725 32.9087 25.3418 32.7127 26.4136L32.5195 27.5078C32.4767 27.7659 32.4515 28.0195 32.419 28.3241C32.4064 28.4964 32.3969 28.6752 32.3986 28.8526C32.4004 29.0299 32.4015 29.1482 32.4068 29.3001C32.4023 29.3168 32.4077 29.3346 32.4208 29.3461C32.4338 29.3575 32.4522 29.3605 32.4682 29.3539L32.5489 29.3073C32.6007 29.2667 32.6509 29.2308 32.698 29.1885L33.3127 28.6608C33.5219 28.4775 33.7522 28.2802 33.9806 28.1036L34.5314 27.6659L35.1853 27.1788C36.537 26.1104 38.0491 25.2626 39.6657 24.6669C40.0356 24.5327 40.415 24.4266 40.8008 24.3495C41.3264 24.2184 41.8773 24.228 42.398 24.3773C42.7198 24.5121 42.9557 24.7952 43.0303 25.136C43.0922 25.2972 43.1411 25.4632 43.1766 25.6322C43.2372 26.1892 42.694 26.56 41.8817 26.7824C40.6634 27.1154 39.4926 27.6024 38.3975 28.2316C37.823 28.5604 37.2669 28.9204 36.7316 29.3098C36.4581 29.5079 36.1861 29.7173 35.9188 29.9283L35.6871 30.1144L35.2475 30.495C34.9572 30.7408 34.6731 30.9995 34.3874 31.2629C33.8099 31.8425 33.1786 32.366 32.5021 32.8262C32.278 32.9545 32.0305 33.0366 31.7741 33.0675C31.5976 33.0946 31.4176 33.0909 31.2423 33.0567C31.0781 33.0173 30.9185 32.961 30.7659 32.8886C30.6798 32.8466 30.5963 32.7993 30.516 32.7469C30.4445 32.6982 30.378 32.6424 30.3175 32.5805C29.9542 32.2459 29.7335 31.7845 29.7009 31.2916C29.6263 30.2499 29.637 29.2039 29.7329 28.1639L29.859 28.1709Z" fill="#FFB637"/>
<path d="M32.5228 38.3401C32.9391 37.8281 33.3711 37.3324 33.7967 36.8397C34.2222 36.347 34.6764 35.8644 35.0877 35.3667C35.3958 35.0094 35.6488 34.6112 35.9791 34.2671C37.1026 33.0564 38.2879 31.8676 39.4257 30.662C39.9333 30.134 40.4018 29.5654 40.8506 29.022C41.4089 28.2612 42.0868 27.5958 42.8579 27.0518C43.1084 26.8884 43.3091 27.1092 43.4058 27.5183C43.5312 28.0211 43.4837 28.5515 43.271 29.0241L42.9102 29.6521C42.7813 29.839 42.6428 30.019 42.495 30.1913C42.2042 30.5601 41.9008 30.9191 41.5783 31.2714C40.9667 31.9877 40.3347 32.686 39.6488 33.3547C39.2509 33.7727 38.8853 34.2203 38.5551 34.6937C38.2178 35.1639 37.8867 35.6471 37.5225 36.1025L36.3666 37.6177L35.2328 39.1461C34.7871 39.787 34.319 40.4308 33.8878 41.0607C33.2073 42.0178 32.5997 43.0246 32.07 44.0727C31.895 44.4854 31.7457 44.9086 31.623 45.3398C31.5037 45.7691 31.399 46.1875 31.2735 46.6039C31.2096 46.7849 31.1808 46.9729 31.1346 47.1495C30.9584 47.8158 30.6477 47.9526 29.9895 47.9508C29.8362 47.9449 29.681 47.9598 29.5311 47.9444C29.043 47.9008 28.7193 47.4973 28.6777 46.8559C28.6802 46.6211 28.6827 46.3863 28.6964 46.1501C28.7101 45.9139 28.7537 45.6989 28.7865 45.4694C28.8192 45.2399 28.8663 45.0155 28.915 44.7863C28.954 44.5577 29.0152 44.3335 29.0976 44.1168C29.4169 43.2644 29.8047 42.4392 30.2573 41.6494C30.5792 41.0612 30.931 40.4898 31.3112 39.9375C31.6709 39.3734 32.0541 38.8336 32.4642 38.3087L32.5228 38.3401Z" fill="#FFB637"/>
<path d="M17.1274 10.6149C17.1096 10.8751 17.0484 11.1305 16.9465 11.3706C16.8612 11.6177 16.728 11.8456 16.5546 12.0412C16.3895 12.2347 16.2067 12.4123 16.0086 12.5718C15.7988 12.7184 15.575 12.844 15.3406 12.9468C15.1778 13.0286 15.001 13.0894 14.8335 13.1696C14.6542 13.2275 14.4714 13.2739 14.2862 13.3087C12.8401 13.4467 11.4594 12.676 10.8178 11.3727L10.6309 10.9157C10.5761 10.7619 10.5313 10.6048 10.4968 10.4453C10.4503 10.1285 10.4624 9.80599 10.5326 9.49366C10.5732 9.28774 10.6434 9.08878 10.741 8.90295C10.8501 8.72236 10.9854 8.55889 11.1424 8.41786C11.2939 8.30169 11.4568 8.20121 11.6285 8.11796C11.7963 8.05996 11.971 8.02433 12.148 8.01196C12.3719 7.99988 12.4319 8.40673 12.4483 8.84638C12.4603 9.07026 12.4677 9.29246 12.4677 9.4746C12.4677 9.65673 12.5179 9.80299 12.4789 9.83746C12.44 9.87193 12.4857 9.90948 12.4504 9.91845C12.4151 9.92742 12.4837 9.93021 12.4932 9.93357C12.5028 9.93693 12.4932 9.93357 12.5171 9.94197C12.5182 9.95253 12.5145 9.96303 12.507 9.97056C12.4633 10.0033 12.3958 10.1188 12.4583 10.3819C12.4885 10.5156 12.5867 10.6235 12.717 10.666C12.8298 10.6887 12.9449 10.6988 13.0599 10.6959C13.4041 10.751 13.7523 10.6248 13.9812 10.3621C14.1009 10.1791 14.1199 9.94797 14.0318 9.74784C13.9003 9.3849 13.5876 9.11791 13.2085 9.04493C12.8988 9.0257 12.5989 9.15738 12.4035 9.39839C12.3729 9.44084 12.3391 9.48084 12.3024 9.51805C12.2564 9.54914 12.2021 9.56547 12.1466 9.56487C12.0768 9.55118 12.0094 9.5274 11.9465 9.49429C11.7672 9.40452 11.6023 9.28858 11.4572 9.15027C11.3628 9.06874 11.268 9.00319 11.1831 8.92502C11.045 8.80467 10.9535 8.63969 10.9244 8.4588C10.8879 8.24725 10.9196 8.02956 11.0151 7.83729L11.1723 7.61954C11.2406 7.54724 11.3297 7.47689 11.4093 7.40318C11.5785 7.25001 11.7738 7.12841 11.9859 7.04415C12.2015 6.9492 12.4253 6.87395 12.6545 6.81933C12.8882 6.7768 13.1246 6.75101 13.362 6.74216C13.833 6.73905 14.3001 6.82916 14.7361 7.00731C15.1391 7.17645 15.513 7.40776 15.8442 7.69281C16.075 7.88629 16.279 8.10958 16.4509 8.35681C16.5183 8.481 16.592 8.60173 16.6715 8.71852C16.7588 8.83006 16.8288 8.95407 16.8792 9.0864C17.0949 9.57766 17.196 10.1116 17.1748 10.6477L17.1274 10.6149Z" fill="#FFB637"/>
<path d="M37.0091 11.8808C36.8906 12.1076 36.7442 12.3186 36.5732 12.5091C36.3891 12.6823 36.1836 12.8312 35.9616 12.9522C35.5255 13.1883 35.0511 13.3455 34.5604 13.4167C34.1985 13.4699 33.8293 13.4438 33.4785 13.3404C32.1768 12.9455 31.6744 11.1505 31.978 10.2292C32.0387 9.98864 32.1214 9.75423 32.2251 9.52888C32.3285 9.28676 32.4852 9.07106 32.6834 8.89779C32.9199 8.64141 33.2327 8.46813 33.5755 8.40365C33.8806 8.3517 34.1942 8.40386 34.466 8.55174C34.6274 8.64082 34.5154 8.92805 34.3535 9.23518C34.1916 9.54231 34.0112 9.90185 33.9619 9.98087C33.9385 10.0006 33.9248 10.0295 33.9242 10.0601C33.9237 10.0907 33.9364 10.1201 33.9591 10.1406C33.9929 10.1712 34.0143 10.213 34.0194 10.2583C34.027 10.3396 34.0304 10.4212 34.0295 10.5029C34.0127 10.5505 33.9925 10.6077 33.974 10.6601C33.9555 10.7125 33.9186 10.7262 33.8953 10.777C33.8413 10.8646 33.8545 10.9779 33.9273 11.0507C33.9958 11.1155 34.0756 11.1673 34.1627 11.2034C34.4037 11.3033 34.679 11.2731 34.8926 11.1234C35.0441 11.0093 35.1239 10.8235 35.1024 10.635C35.0927 10.2827 34.8803 9.96769 34.5573 9.82667C34.4239 9.77962 34.2751 9.79141 34.2323 9.86735C34.2323 9.86735 34.2323 9.86735 34.2222 9.89593C34.2222 9.89593 34.2121 9.92451 34.2222 9.89593C34.2164 9.87171 34.2126 9.84707 34.2107 9.82224C34.2107 9.82224 34.2107 9.82224 34.2637 9.89985C34.3166 9.97746 34.3261 9.98082 34.3687 10.0119L34.4223 10.0576C34.3347 10.0674 34.2464 10.0686 34.1586 10.061C33.9529 10.0366 33.7394 10.0042 33.4878 9.95825L33.1658 9.9143C32.9959 9.87982 32.8391 9.79851 32.713 9.67956C32.6195 9.59953 32.5343 9.51026 32.4588 9.41312C32.3553 9.29629 32.3763 9.19121 32.3626 9.06316C32.359 8.85842 32.3996 8.65532 32.4816 8.4677C32.596 8.23785 32.7524 8.03142 32.9427 7.85902C33.3949 7.48274 33.9852 7.3154 34.5676 7.39839C35.0104 7.45624 35.4319 7.62334 35.7941 7.88465C35.9411 7.99044 36.0785 8.10883 36.205 8.23849C36.3372 8.36954 36.4527 8.51644 36.5488 8.67584C37.2697 9.66934 37.5226 10.9263 37.0268 11.8763L37.0091 11.8808Z" fill="#FFB637"/>
<path d="M48.5689 21.7652C48.0915 21.9599 47.5687 22.0151 47.0612 21.9243L46.8574 21.8792C46.8082 21.8672 46.7604 21.8504 46.7145 21.8288C46.6288 21.7986 46.5526 21.7717 46.4478 21.7347C46.2327 21.6341 46.031 21.5072 45.8472 21.3568C45.7732 21.2932 45.6914 21.2215 45.6051 21.1321C45.5164 21.0438 45.4378 20.946 45.3705 20.8405C45.0149 20.3148 45.018 19.6248 45.3784 19.1023C45.5006 18.9136 45.6506 18.7444 45.8233 18.6004C46.0923 18.3786 46.3819 18.183 46.6882 18.0163C46.935 17.8784 47.1471 17.7176 47.383 17.5651C47.6663 17.2927 48.0523 17.1541 48.4441 17.1841C48.6131 17.2062 48.6114 17.5753 48.6401 17.9496C48.6687 18.324 48.7562 18.7137 48.6859 18.8068C48.4002 19.1781 48.046 19.4914 47.6425 19.7296C47.5218 19.7835 47.4688 19.888 47.4842 19.9202C47.4842 19.9202 47.4997 19.9524 47.4842 19.9202L47.3366 19.8681C47.2533 19.8462 47.1677 19.834 47.0816 19.8317C47.0212 19.8219 46.9595 19.8258 46.9008 19.843C46.9965 19.781 47.0758 19.6969 47.132 19.5977C47.1725 19.5345 47.2083 19.4683 47.2393 19.3999L47.2774 19.4133L47.3488 19.4386C47.3872 19.2539 47.2965 19.6933 47.3068 19.6487L47.2984 19.6725C47.2984 19.6725 47.3068 19.6487 47.3119 19.6344C47.3063 19.5994 47.3026 19.5642 47.3009 19.5288C47.4213 19.5362 47.5404 19.5003 47.6366 19.4276C47.8391 19.3065 47.9816 19.1062 48.0296 18.8752C48.0431 18.8371 48.0067 18.8189 47.9862 18.801C47.9657 18.7831 47.9624 18.7926 47.9481 18.7875C47.9715 18.7857 47.9946 18.7812 48.017 18.7744C48.1406 18.743 48.1187 18.7138 48.0551 18.7878L48.0333 18.8497C48.0051 18.8849 47.9809 18.9231 47.961 18.9635C47.8316 19.3303 47.9739 18.7752 48.0329 18.2282L48.0684 17.839C48.0832 17.6347 48.144 17.4364 48.2463 17.259C48.3022 17.1566 48.3716 17.0622 48.4525 16.9782C48.5221 16.9 48.6178 16.85 48.7217 16.8375C48.8866 16.8176 49.0536 16.8275 49.2149 16.8668C49.3051 16.8818 49.394 16.9042 49.4805 16.9337C49.5803 16.9775 49.6771 17.0277 49.7703 17.0842C49.9683 17.1999 50.1354 17.3618 50.2574 17.556C50.3986 17.7426 50.5058 17.9527 50.5741 18.1766C50.7704 18.8655 50.6851 19.6042 50.3371 20.2303C49.9576 20.9378 49.3562 21.501 48.6253 21.8333L48.5689 21.7652Z" fill="#FFB637"/>
</svg>
