<svg width="72" height="72" viewBox="0 0 72 72" fill="none" xmlns="http://www.w3.org/2000/svg">
<circle cx="36" cy="36" r="36" fill="white"/>
<path d="M36.0667 46.6667C33.0889 46.6667 30.5556 45.6334 28.4667 43.5667C26.3778 41.5 25.3333 38.9778 25.3333 36V35.7667L24.1333 36.9667C23.8889 37.2112 23.5778 37.3334 23.2 37.3334C22.8222 37.3334 22.5111 37.2112 22.2667 36.9667C22.0222 36.7223 21.9 36.4112 21.9 36.0334C21.9 35.6556 22.0222 35.3445 22.2667 35.1L25.7333 31.6334C25.8667 31.5 26.0111 31.4058 26.1667 31.3507C26.3222 31.2956 26.4889 31.2676 26.6667 31.2667C26.8444 31.2667 27.0111 31.2947 27.1667 31.3507C27.3222 31.4067 27.4667 31.5009 27.6 31.6334L31.0667 35.1C31.3111 35.3445 31.4333 35.6556 31.4333 36.0334C31.4333 36.4112 31.3111 36.7223 31.0667 36.9667C30.8222 37.2112 30.5111 37.3334 30.1333 37.3334C29.7555 37.3334 29.4444 37.2112 29.2 36.9667L28 35.7667V36C28 38.2223 28.7835 40.1112 30.3507 41.6667C31.9178 43.2223 33.8231 44 36.0667 44C36.5111 44 36.9444 43.9609 37.3667 43.8827C37.7889 43.8045 38.2111 43.688 38.6333 43.5334C38.8556 43.4445 39.0942 43.4223 39.3493 43.4667C39.6044 43.5112 39.8213 43.6223 40 43.8C40.4 44.2 40.5613 44.628 40.484 45.084C40.4067 45.54 40.112 45.8565 39.6 46.0334C39.0222 46.2334 38.4391 46.3889 37.8507 46.5C37.2622 46.6112 36.6675 46.6667 36.0667 46.6667ZM45.3333 40.7334C45.1556 40.7334 44.9889 40.7054 44.8333 40.6494C44.6778 40.5934 44.5333 40.4992 44.4 40.3667L40.9333 36.9C40.6889 36.6556 40.5667 36.3445 40.5667 35.9667C40.5667 35.5889 40.6889 35.2778 40.9333 35.0334C41.1778 34.7889 41.4889 34.6667 41.8667 34.6667C42.2444 34.6667 42.5556 34.7889 42.8 35.0334L44 36.2334V36C44 33.7778 43.2164 31.8889 41.6493 30.3334C40.0822 28.7778 38.1769 28 35.9333 28C35.4889 28 35.0556 28.0392 34.6333 28.1174C34.2111 28.1956 33.7889 28.312 33.3667 28.4667C33.1444 28.5556 32.9058 28.5778 32.6507 28.5334C32.3955 28.4889 32.1787 28.3778 32 28.2C31.6 27.8 31.4387 27.372 31.516 26.916C31.5933 26.46 31.888 26.1436 32.4 25.9667C32.9778 25.7667 33.5613 25.6112 34.1507 25.5C34.74 25.3889 35.3342 25.3334 35.9333 25.3334C38.9111 25.3334 41.4444 26.3667 43.5333 28.4334C45.6222 30.5 46.6667 33.0223 46.6667 36V36.2334L47.8667 35.0334C48.1111 34.7889 48.4222 34.6667 48.8 34.6667C49.1778 34.6667 49.4889 34.7889 49.7333 35.0334C49.9778 35.2778 50.1 35.5889 50.1 35.9667C50.1 36.3445 49.9778 36.6556 49.7333 36.9L46.2667 40.3667C46.1333 40.5 45.9889 40.5947 45.8333 40.6507C45.6778 40.7067 45.5111 40.7343 45.3333 40.7334Z" fill="#FFB637"/>
</svg>
