<svg width="60" height="60" viewBox="0 0 60 60" fill="none" xmlns="http://www.w3.org/2000/svg">
<circle cx="30" cy="30" r="30" fill="white"/>
<path d="M14.5 38.8333C14.1944 38.5278 14.0417 38.1456 14.0417 37.6867C14.0417 37.2278 14.1944 36.8322 14.5 36.5L24.5 26.4167C24.6667 26.2778 24.8472 26.1667 25.0417 26.0833C25.2361 26 25.4444 25.9583 25.6667 25.9583C25.8889 25.9583 26.1039 26 26.3117 26.0833C26.5194 26.1667 26.6933 26.2778 26.8333 26.4167L32.3333 31.9167L41 23.3333H38.3333C37.8611 23.3333 37.465 23.1733 37.145 22.8533C36.825 22.5333 36.6656 22.1378 36.6667 21.6667C36.6667 21.1945 36.8267 20.7983 37.1467 20.4783C37.4667 20.1583 37.8622 19.9989 38.3333 20H45C45.4722 20 45.8683 20.16 46.1883 20.48C46.5083 20.8 46.6678 21.1956 46.6667 21.6667V28.3333C46.6667 28.8056 46.5067 29.2017 46.1867 29.5217C45.8667 29.8417 45.4711 30.0011 45 30C44.5278 30 44.1317 29.84 43.8117 29.52C43.4917 29.2 43.3322 28.8045 43.3333 28.3333V25.6667L33.5 35.5C33.3333 35.6667 33.1528 35.785 32.9583 35.855C32.7639 35.925 32.5556 35.9594 32.3333 35.9583C32.1111 35.9583 31.9028 35.9239 31.7083 35.855C31.5139 35.7861 31.3333 35.6678 31.1667 35.5L25.6667 30L16.7917 38.875C16.4861 39.1806 16.1111 39.3333 15.6667 39.3333C15.2222 39.3333 14.8333 39.1667 14.5 38.8333Z" fill="#5EC3C5"/>
</svg>
