<svg width="38" height="40" viewBox="0 0 38 40" fill="none" xmlns="http://www.w3.org/2000/svg">
<path d="M21.2634 37.738C21.4987 37.8816 21.6523 38.1281 21.6774 38.4026C21.6963 38.7258 21.6613 39.0498 21.5739 39.3615C21.514 39.6066 21.0672 40.0588 20.882 39.9934C20.5257 39.8767 20.1795 39.7309 19.8469 39.5576C19.6344 39.4541 17.3899 37.2422 16.6217 36.5122C15.8873 35.7956 15.2012 35.0312 14.5678 34.224C13.2657 32.5896 11.9473 31.0043 10.6616 29.3753C10.3867 29.0033 10.1391 28.6118 9.92068 28.204C9.13589 26.8304 8.2239 25.5336 7.1967 24.3305C7.04835 24.1091 6.85304 23.9231 6.62466 23.7857C6.19972 23.5787 3.61737 20.1464 3.35587 19.6343C2.75115 18.3704 2.07015 17.1555 1.44908 15.897C1.35646 15.7172 1.19302 15.5756 1.22571 15.3522C1.24325 14.8959 1.10277 14.4476 0.828009 14.0828C0.538623 13.5583 0.290886 13.0118 0.0870843 12.4485C0.0148269 12.1269 -0.0126728 11.7969 0.00536459 11.4678C0.00536459 11.1627 0.550162 11.0156 0.626434 11.0647C0.909729 11.2009 1.01324 10.8903 1.17123 10.7541C1.23099 10.7056 1.29695 10.6653 1.36736 10.6343C1.88659 10.9506 2.37861 11.3096 2.83831 11.7075C3.39577 12.1143 3.92039 12.5642 4.40733 13.0532C4.40733 13.0532 4.60891 13.331 4.89765 13.7178L5.96 15.1289C6.74996 16.1694 7.5944 17.2481 7.77418 17.4606C7.95069 17.699 8.08858 17.9638 8.18278 18.2451C8.23726 18.3704 10.7106 21.4376 10.7924 21.5738C11.3106 22.2109 11.7244 22.9262 12.0182 23.6931C12.0722 23.8514 12.1595 23.9963 12.2742 24.118C13.1186 25.2349 13.8378 26.4443 14.5951 27.6265C14.9819 28.2312 15.4395 28.7869 15.8535 29.3699C15.9199 29.4845 15.98 29.6027 16.0333 29.724C16.0994 29.8737 16.1778 30.0176 16.2676 30.1544C17.2972 31.5055 18.1798 32.9601 19.2912 34.2404C19.5473 34.5346 20.4244 36.2071 20.7349 36.5285C20.9038 36.7029 21.0672 37.6236 21.2634 37.738Z" fill="#ED8054"/>
<path d="M18.6375 22.0589C18.8538 22.4096 18.8538 22.8523 18.6375 23.2029C18.5721 23.3446 18.2397 23.4917 18.1362 23.41C17.9347 23.2574 17.7276 23.1049 17.5424 22.936C17.4389 22.8325 16.0823 21.0074 15.5648 20.419C15.3196 20.1248 15.0908 19.8306 14.8729 19.5256C14.655 19.2205 14.4915 18.8936 14.3281 18.5722L12.1489 14.6551C11.9909 14.3631 11.8614 14.0566 11.7621 13.7398C11.3995 12.6615 10.9209 11.6258 10.3347 10.6508C10.2678 10.4663 10.1486 10.3054 9.99151 10.1877C9.69187 10.0025 8.35711 7.24036 8.2536 6.84266C8.1392 6.3469 8.003 5.86747 7.8668 5.3826C7.7306 4.89773 7.63253 4.39652 7.51268 3.9062C7.47999 3.77 7.38193 3.65015 7.45275 3.47036C7.54888 3.14987 7.50536 2.80369 7.33289 2.51697C7.1815 2.11498 7.05594 1.70372 6.95698 1.28572C6.93399 1.04768 6.94315 0.807632 6.98422 0.572038C6.98422 0.354119 7.40372 0.256055 7.47454 0.294191C7.67612 0.408598 7.77418 0.179783 7.91583 0.0871677C7.96555 0.053068 8.01846 0.0238752 8.07382 0C8.82721 0.618748 9.53713 1.28862 10.1985 2.00486L11.2881 3.59567C11.7784 4.42376 12.2851 5.28454 12.3777 5.45343C12.482 5.64459 12.5503 5.85325 12.5793 6.06905C12.5793 6.16711 14.0938 8.62415 14.132 8.73311C14.4494 9.24881 14.6364 9.8341 14.6768 10.4383C14.6848 10.5599 14.7221 10.6777 14.7857 10.7816C15.1997 11.7167 15.5634 12.6733 15.8753 13.6472C16.0497 14.1375 16.2894 14.6006 16.4909 15.08C16.5172 15.173 16.5372 15.2676 16.5509 15.3633C16.5702 15.4805 16.6012 15.5955 16.6435 15.7065C17.1393 16.8343 17.5642 17.9892 18.0382 19.1279C18.1417 19.3894 18.3977 20.7622 18.5448 21.051C18.5993 21.2199 18.5503 21.9063 18.6375 22.0589Z" fill="#ED8054"/>
<path d="M37.2151 31.4839C37.5147 31.7781 37.324 32.214 36.8718 32.7315C36.7247 32.895 36.169 33.1183 36.0437 33.0475C35.8022 32.9245 35.5708 32.7824 35.3518 32.6226C35.2429 32.519 33.9626 30.6885 33.5595 30.0457C33.1759 29.4292 32.8512 28.778 32.5897 28.1007C32.0449 26.7442 31.5001 25.3767 30.9553 24.0202C30.8395 23.7155 30.7555 23.3997 30.7047 23.0777C30.5087 21.9752 30.1775 20.9011 29.7186 19.8797C29.6721 19.6942 29.5761 19.5247 29.4408 19.3894C29.1629 19.1715 28.1605 16.3494 28.1169 15.9572C28.0134 14.9766 27.8009 14.0341 27.6756 13.0643C27.6756 12.9227 27.5667 12.7974 27.6756 12.6339C27.8151 12.339 27.8151 11.9972 27.6756 11.7023C27.5704 11.2981 27.4957 10.8865 27.4523 10.4711C27.4604 10.2324 27.5082 9.99668 27.5939 9.77373C27.6539 9.56126 28.1387 9.49589 28.1823 9.53947C28.3839 9.66477 28.531 9.4523 28.7271 9.37058C28.7866 9.3401 28.8486 9.31459 28.9123 9.29431C29.5839 9.96084 30.1896 10.6906 30.7211 11.4735C30.7211 11.4735 30.83 11.6969 30.9717 12.0183C31.1133 12.3397 31.2986 12.7483 31.4838 13.1787C31.8488 14.0341 32.2302 14.9275 32.3173 15.1019C32.394 15.298 32.4328 15.5069 32.4317 15.7175C32.4317 15.821 33.5758 18.3597 33.603 18.4415C33.8423 18.9726 33.9685 19.5478 33.9735 20.1303C33.9727 20.2462 34.0008 20.3604 34.0552 20.4627C34.3888 21.3861 34.6743 22.3263 34.9106 23.2793C35.0522 23.7587 35.2538 24.2163 35.4554 24.6849C35.4764 24.7761 35.4892 24.8691 35.4935 24.9627C35.501 25.0776 35.523 25.1911 35.5589 25.3005C36.0002 26.3901 36.2943 27.5559 36.8446 28.6074C36.9862 28.8471 37.1388 30.1873 37.2804 30.4706C37.2804 30.6558 37.0898 31.3641 37.2151 31.4839Z" fill="#ED8054"/>
</svg>
