<svg width="338" height="16" viewBox="0 0 338 16" fill="none" xmlns="http://www.w3.org/2000/svg">
<path fill-rule="evenodd" clip-rule="evenodd" d="M229.621 0.0573057C227.189 0.0483172 225.232 0.0410848 224.049 0.0382401C223.622 0.0382401 223.211 0.049188 222.827 0.0593966C222.348 0.072139 221.913 0.0837297 221.545 0.0714406C210.99 -0.0130571 199.84 -0.00347177 188.669 0.00613104C182.283 0.0116212 175.89 0.0171171 169.597 0.0050397C166.278 -0.00300675 162.954 0.0357517 159.629 0.0745228C158.399 0.0888652 157.169 0.103209 155.939 0.115186C152.947 0.0401601 149.981 0.0993013 147.024 0.158238C145.663 0.185373 144.304 0.212465 142.946 0.226398C131.266 0.341171 119.56 0.334488 107.857 0.327807C103.762 0.325469 99.666 0.323131 95.572 0.326C87.653 0.33281 79.7332 0.33543 71.8132 0.338051C53.9919 0.343947 36.1693 0.349844 18.3502 0.403479C17.0445 0.406235 15.7412 0.382911 14.4416 0.359656C10.5223 0.289521 6.63732 0.219999 2.82527 0.868285C2.79102 0.873818 2.73965 0.879352 2.68829 0.884885C2.63692 0.890418 2.58555 0.895952 2.55131 0.901485C1.42496 1.04295 1.32155 1.27958 1.21925 1.51366C1.16948 1.62753 1.11998 1.7408 0.953116 1.84221C-1.36802 3.28095 0.466066 3.7347 7.38383 3.52442C8.65244 3.48715 9.98578 3.52832 11.293 3.56869C11.5385 3.57627 11.7831 3.58382 12.0261 3.59082C14.977 3.68252 19.5995 3.70584 23.1454 3.72373C23.8793 3.72744 24.567 3.73091 25.1843 3.7347C27.3937 3.75158 29.7152 3.6998 31.9848 3.64918C34.1792 3.60024 36.325 3.55238 38.2741 3.5687C44.9443 3.62128 51.6133 3.70681 58.282 3.79234C68.4588 3.92286 78.635 4.05337 88.814 4.06674C100.027 4.08581 111.239 4.00629 122.454 3.92676C130.762 3.86783 139.072 3.8089 147.383 3.79006C157.779 3.76792 168.174 3.77899 178.57 3.79006C188.966 3.80113 199.361 3.81219 209.757 3.79006C217.246 3.77574 224.735 3.7869 232.224 3.79806C247.885 3.82139 263.547 3.84473 279.224 3.6351C290.929 3.47975 302.722 3.61435 314.504 3.74881C318.67 3.79636 322.835 3.84389 326.993 3.87858C333.569 3.93392 337.861 3.18135 337.998 1.87541C338.119 0.709106 332.554 0.620854 328.741 0.560395C328.466 0.556025 328.199 0.551801 327.945 0.547325C303.813 0.126769 279.612 0.104652 255.419 0.115719C247.65 0.123942 236.651 0.0832871 229.621 0.0573057ZM160.576 11.4514C155.317 11.4687 150.048 11.486 148.098 11.4934L147.996 11.4971C147.426 11.5179 146.903 11.5371 146.508 11.5266C141.303 11.5266 135.871 11.5239 130.383 11.5212C124.781 11.5184 119.121 11.5156 113.585 11.5156C111.746 11.5156 109.904 11.5469 108.06 11.5783C107.017 11.596 105.973 11.6137 104.93 11.6258C103.029 11.5506 101.146 11.6098 99.2716 11.6688C98.4099 11.6959 97.5499 11.723 96.6906 11.7369C90.5186 11.8326 84.335 11.8396 78.1488 11.8467C74.3196 11.851 70.4894 11.8554 66.6604 11.8808C50.3439 11.9693 34.0198 12.1243 17.7033 12.5891C16.8791 12.6138 16.0553 12.6126 15.2336 12.6114C12.7471 12.6078 10.2789 12.6041 7.87083 13.3195C7.83278 13.3306 7.74904 13.3527 7.70338 13.3638C6.99205 13.5275 6.93111 13.7613 6.87032 13.9945C6.84071 14.1081 6.81113 14.2215 6.70643 14.3266C5.26047 15.7986 6.42486 16.2192 10.8084 15.8982C11.6705 15.838 12.5826 15.8596 13.471 15.8807C13.563 15.8829 13.6546 15.885 13.746 15.8871C15.2523 15.924 17.4413 15.8921 19.4076 15.8634C20.3918 15.849 21.3202 15.8355 22.0792 15.8318C23.4628 15.8151 24.9155 15.737 26.3371 15.6606C27.746 15.5849 29.1244 15.5108 30.3745 15.4998C35.7131 15.5274 41.0498 15.5523 46.3865 15.5772C51.7232 15.6021 57.06 15.6271 62.3986 15.6547C68.5855 15.5939 74.7705 15.5357 80.9555 15.4776C87.141 15.4195 93.3266 15.3614 99.514 15.3006C106.105 15.3006 112.697 15.2978 119.287 15.295C125.876 15.2923 132.464 15.2895 139.05 15.2895C142.222 15.2704 145.395 15.2595 148.568 15.2486C160.068 15.2093 171.571 15.1699 183.083 14.7362C189.168 14.5015 195.29 14.4415 201.416 14.3814C205.402 14.3423 209.391 14.3032 213.372 14.216C217.542 14.1274 220.251 13.2863 220.312 11.9804C220.369 10.8118 216.886 10.8395 214.473 10.8588C214.281 10.8603 214.096 10.8618 213.92 10.8626C199.286 11.0427 184.617 11.2227 169.947 11.4028L167.976 11.427C165.781 11.4343 163.18 11.4429 160.576 11.4514Z" fill="#B50700"/>
</svg>
