<svg width="187" height="20" viewBox="0 0 187 20" fill="none" xmlns="http://www.w3.org/2000/svg">
<path fill-rule="evenodd" clip-rule="evenodd" d="M127.671 1.45941C126.123 1.47603 124.876 1.48944 124.153 1.49956C123.861 1.50454 123.583 1.52559 123.333 1.5446C123.126 1.56024 122.939 1.5745 122.776 1.57727C116.822 1.59301 110.525 1.71339 104.225 1.83384C100.865 1.89809 97.5035 1.96236 94.1924 2.01077C92.4195 2.03556 90.6452 2.10665 88.8703 2.17776C88.14 2.20702 87.4097 2.23628 86.6792 2.26232C85.047 2.21216 83.4306 2.30354 81.8198 2.3946C81.0565 2.43774 80.2946 2.48082 79.5327 2.50873C73.1311 2.74372 66.7135 2.84818 60.2974 2.95262C58.0208 2.98968 55.7443 3.02674 53.4687 3.06962C49.304 3.14979 45.1388 3.22663 40.9735 3.30346C30.976 3.48788 20.9775 3.67232 10.982 3.903C10.2621 3.91915 9.5431 3.9078 8.82617 3.89648C6.67002 3.86243 4.53273 3.82868 2.44832 4.54423C2.42954 4.54843 2.40141 4.55666 2.37327 4.56488C2.34513 4.57311 2.317 4.58134 2.29822 4.58553C1.68042 4.75256 1.6283 4.99776 1.57613 5.24324C1.55084 5.36223 1.52554 5.48127 1.4358 5.59152C0.184304 7.11526 1.20151 7.5703 5.00407 7.28858C5.70142 7.23756 6.43577 7.26824 7.15576 7.29833C7.29097 7.30398 7.42566 7.30961 7.55951 7.31467C9.15655 7.38199 11.6405 7.36232 13.5777 7.34698C14.0199 7.34348 14.4337 7.3402 14.8019 7.33824C16.0007 7.32943 17.2584 7.25345 18.4895 7.17906C19.7142 7.10507 20.9127 7.03267 22.0009 7.02955C25.6298 7.02218 29.2587 7.04683 32.8875 7.07149C38.5312 7.10984 44.1746 7.14818 49.8175 7.06604C55.9544 6.9746 62.0896 6.78206 68.2256 6.5895C72.8288 6.44504 77.4325 6.30056 82.0376 6.19875C88.0747 6.06304 94.1124 5.96831 100.15 5.87357C105.552 5.78881 110.955 5.70405 116.356 5.58994C120.477 5.50209 124.598 5.44099 128.718 5.37988C137.335 5.25211 145.953 5.12432 154.575 4.75194C161.003 4.47088 167.484 4.49654 173.959 4.52218C176.262 4.5313 178.564 4.54042 180.863 4.53573C184.481 4.5282 186.83 3.69821 186.882 2.32658C186.927 1.10049 183.876 1.06094 181.777 1.03374C181.621 1.03171 181.47 1.02976 181.326 1.02739C168.041 0.81265 154.725 1.02437 141.414 1.27473C137.303 1.35595 131.546 1.41778 127.671 1.45941ZM93.4837 13.5004C89.8417 13.6167 84.1551 13.6983 82.5512 13.7179C82.3673 13.721 82.1926 13.7427 82.0349 13.7622C81.9054 13.7783 81.7875 13.7929 81.6855 13.7946C78.1587 13.7982 74.4435 13.8768 70.7148 13.9558C68.3237 14.0064 65.927 14.0571 63.5709 14.0882C62.5106 14.1012 61.4491 14.1554 60.387 14.2096C59.8615 14.2365 59.336 14.2633 58.8103 14.2851C57.7645 14.2189 56.7311 14.3004 55.702 14.3815C55.227 14.419 54.753 14.4564 54.2791 14.4791C50.6952 14.6463 47.1025 14.7149 43.5084 14.7834C41.5918 14.82 39.6748 14.8566 37.7585 14.9081C28.778 15.1388 19.7982 15.4082 10.8267 15.9175C10.3712 15.9446 9.91569 15.9442 9.46157 15.9439C8.09284 15.9429 6.73648 15.9419 5.42835 16.6911C5.40767 16.707 5.362 16.731 5.337 16.7391C4.95211 16.912 4.92301 17.159 4.89412 17.4043C4.87995 17.5245 4.86583 17.6444 4.80983 17.7549C4.04446 19.2936 4.69711 19.7394 7.09966 19.3963C7.56401 19.3264 8.0564 19.3479 8.53701 19.3689C8.59691 19.3715 8.65663 19.3741 8.71608 19.3765C9.65163 19.4187 11.0635 19.3741 12.2387 19.337C12.6274 19.3247 12.9902 19.3133 13.3013 19.306C14.066 19.2891 14.8668 19.2005 15.6501 19.1139C16.4193 19.0289 17.1716 18.9457 17.8563 18.934C20.6701 18.8897 23.4841 18.9058 26.2975 18.9219C29.3581 18.9394 32.4181 18.9569 35.4768 18.8967C39.0906 18.8227 42.7033 18.6744 46.3165 18.5261C49.506 18.3952 52.6961 18.2643 55.8879 18.1844C59.5121 18.1187 63.1385 18.051 66.7648 17.9833C70.3907 17.9156 74.0166 17.848 77.6404 17.7823C79.6584 17.7265 81.6767 17.6839 83.6951 17.6412C89.75 17.5132 95.8067 17.3852 101.864 16.9043C105.437 16.6126 109.04 16.5413 112.645 16.4699C114.606 16.4311 116.567 16.3923 118.525 16.318C120.819 16.2401 122.291 15.3554 122.296 13.9845C122.303 12.7675 120.372 12.7887 119.043 12.8032C118.943 12.8043 118.846 12.8054 118.754 12.8059C112.133 12.8579 105.505 13.0875 98.8727 13.3172C97.0767 13.3795 95.2803 13.4417 93.4837 13.5004Z" fill="#B50700"/>
</svg>
